<?xml version="1.0" encoding="utf-8"?>
<!-- Generator: Adobe Illustrator 16.0.0, SVG Export Plug-In . SVG Version: 6.00 Build 0)  -->
<!DOCTYPE svg PUBLIC "-//W3C//DTD SVG 1.1//EN" "http://www.w3.org/Graphics/SVG/1.1/DTD/svg11.dtd">
<svg version="1.1" id="Layer_1" xmlns="http://www.w3.org/2000/svg" xmlns:xlink="http://www.w3.org/1999/xlink" x="0px" y="0px"
	 width="782px" height="45px" viewBox="0 0 782 45" enable-background="new 0 0 782 45" xml:space="preserve">
<g>
	<g>
		<path fill="#CDCCCC" d="M0,20.5V2.403C0,1.196,1.437,0.5,2.643,0.5h776.742c1.207,0,1.615,0.696,1.615,1.903V20.5"/>
		<rect y="20.5" fill="#C0BFBF" width="781" height="24"/>
		<path opacity="0.1" fill="#0D242F" stroke="#F3F3F3" stroke-width="0.3" stroke-miterlimit="10" d="M15.02,9.322
			c0,2.411-1.953,4.366-4.365,4.366c-2.41,0-4.365-1.955-4.365-4.366"/>
		<path opacity="0.06" fill="#FFFFFF" stroke="#F3F3F3" stroke-width="0.3" stroke-miterlimit="10" d="M28.13,9.322
			c0,2.411-1.954,4.366-4.366,4.366c-2.41,0-4.365-1.955-4.365-4.366"/>
		<rect y="10.5" opacity="0.2" fill="#F3F3F3" width="781" height="9"/>
		<path fill="none" stroke="#989898" stroke-miterlimit="10" d="M0.5,358.5V2.403C0.5,1.196,1.437,0,2.643,0h776.742
			c1.207,0,2.115,1.196,2.115,2.403V358.5"/>
		<circle fill="#05A0D1" stroke="#F3F3F3" stroke-width="0.3" stroke-miterlimit="10" cx="10.654" cy="9.322" r="4.365"/>
		<circle fill="#0D242F" stroke="#F3F3F3" stroke-width="0.3" stroke-miterlimit="10" cx="23.764" cy="9.322" r="4.366"/>
		<line fill="none" stroke="#818181" stroke-miterlimit="10" x1="1" y1="20" x2="781" y2="20"/>
		<polyline fill="none" stroke="#818181" stroke-width="1.5" stroke-miterlimit="10" points="16.667,27.042 12.521,31.75 
			16.667,36.458 		"/>
		<polyline fill="none" stroke="#818181" stroke-width="1.5" stroke-miterlimit="10" points="33.854,27.042 38,31.75 33.854,36.458 
					"/>
		<line fill="none" stroke="#F3F3F3" stroke-miterlimit="10" x1="25.5" y1="26.5" x2="25.5" y2="37.5"/>
		<g>
			<path fill-rule="evenodd" clip-rule="evenodd" fill="#818181" d="M69.431,27.158c2.205,2.206,2.438,1.609,4.681,3.851
				c-0.309,0.28,0.431,0.603,0.06,0.941c-0.255-0.282,0.302,0.649-0.004,0.31c-0.024,0.011,0.03,0.233,0.008,0.244
				c0,1.478,0,2.955,0,4.459c-0.97,0-1.904,0-2.879,0c0-0.12,0-0.231,0-0.343c-0.001-0.942,0.023-1.885-0.013-2.826
				c-0.029-0.747-0.418-1.311-1.093-1.64c-0.632-0.31-1.265-0.251-1.842,0.155c-0.536,0.378-0.827,0.912-0.836,1.572
				c-0.012,0.911-0.004,1.821-0.005,2.732c0,0.113,0,0.224,0,0.356c-0.951,0-1.866,0-2.812,0c0-1.508,0-3.01,0-4.597
				c-0.382,0.417,0.321-0.353,0,0c-0.015-0.758,0.728-1.545,0.452-1.82C67.385,28.316,67.189,29.398,69.431,27.158z"/>
			<g>
				<polygon fill="#818181" points="63.835,32.812 62.815,31.654 69.401,26 75.843,31.678 74.821,32.837 69.401,28.058 				"/>
			</g>
		</g>
		<g>
			<g>
				<path fill="#818181" d="M50.879,37.432c-2.961,0-5.37-2.627-5.37-5.588s2.409-5.479,5.37-5.479
					c1.05,0.001,2.066,0.25,2.94,0.823l-0.815,1.218c-0.632-0.414-1.366-0.646-2.125-0.647c-2.14,0-3.881,1.733-3.881,3.874
					s1.741,4.314,3.881,4.314c2.139,0,3.88-1.446,3.88-3.446h1.489C56.248,35.5,53.839,37.432,50.879,37.432z"/>
			</g>
			<polygon fill="#818181" points="54.455,25.879 51.275,29.06 54.287,28.874 			"/>
		</g>
		<rect x="86" y="23.5" fill="#FFFFFF" width="559" height="17"/>
		<line fill="none" stroke="#818181" stroke-miterlimit="10" x1="1" y1="45" x2="781" y2="45"/>
	</g>
	<g>
		<polygon fill="#818181" points="771.156,27.688 759.886,27.692 759.907,26.192 771.178,26.188 		"/>
	</g>
	<g>
		<polygon fill="#818181" points="771.156,31.688 759.886,31.692 759.907,30.192 771.178,30.188 		"/>
	</g>
	<g>
		<polygon fill="#818181" points="771.156,35.688 759.886,35.692 759.907,34.192 771.178,34.188 		"/>
	</g>
</g>
<rect x="91" y="27.5" fill="#CDCCCC" width="8" height="9"/>
<path fill="none" stroke="#818181" stroke-width="0.2" stroke-miterlimit="10" d="M97.125,27c0,0.286,0,1.688,0,1.688
	c0.219,0,1.714,0,1.875,0"/>
</svg>
