<?xml version="1.0" encoding="utf-8"?>
<!-- Generator: Adobe Illustrator 16.0.0, SVG Export Plug-In . SVG Version: 6.00 Build 0)  -->
<!DOCTYPE svg PUBLIC "-//W3C//DTD SVG 1.1//EN" "http://www.w3.org/Graphics/SVG/1.1/DTD/svg11.dtd">
<svg version="1.1" id="Layer_1" xmlns="http://www.w3.org/2000/svg" xmlns:xlink="http://www.w3.org/1999/xlink" x="0px" y="0px"
	 width="595.28px" height="658.209px" viewBox="0 0 595.28 658.209" enable-background="new 0 0 595.28 658.209"
	 xml:space="preserve">
<g>
	<g>
		<g>
			<path fill="#E6E6E5" d="M353.785,526.31c-88.805,31.21-186.444-15.646-217.653-104.453
				c-31.21-88.806,15.648-186.445,104.454-217.654c88.805-31.209,186.445,15.646,217.655,104.454
				C489.449,397.462,442.592,495.101,353.785,526.31z M246.217,220.229c-79.968,28.104-122.164,116.027-94.06,195.996
				c28.105,79.968,116.028,122.162,195.997,94.06c79.967-28.104,122.162-116.027,94.059-195.996S326.186,192.125,246.217,220.229z"
				/>
		</g>
		<polyline fill="#E6E6E5" points="320.552,509.874 396.961,651.547 366.953,494.135 		"/>
		<polyline fill="#E6E6E5" points="442.353,341.728 584.027,265.329 426.612,295.325 		"/>
		<polyline fill="#E6E6E5" points="151.898,388.265 10.224,464.663 167.639,434.667 		"/>
		<polyline fill="#E6E6E5" points="283.602,210.395 172.663,4.666 216.162,232.941 		"/>
	</g>
	<g>
		<g>
			<path fill="#CDB32C" d="M348.154,510.284c-79.969,28.103-167.892-14.092-195.997-94.06
				c-28.104-79.969,14.092-167.893,94.06-195.996c79.968-28.104,167.892,14.091,195.996,94.06S428.121,482.18,348.154,510.284z
				 M251.85,236.254c-71.133,24.999-108.664,103.206-83.666,174.339c24.999,71.131,103.206,108.663,174.337,83.666
				c71.133-25,108.664-103.207,83.666-174.339C401.188,248.788,322.981,211.256,251.85,236.254z"/>
		</g>
		<polyline fill="#CDB32C" points="265.015,219.91 188.633,48.678 236.167,230.049 		"/>
		<polyline fill="#CDB32C" points="149.072,406.389 54.234,448.694 154.484,422.42 		"/>
		<polyline fill="#CDB32C" points="445.18,323.604 540.016,281.298 439.766,307.572 		"/>
		<polyline fill="#CDB32C" points="338.676,512.701 380.988,607.536 354.706,507.288 		"/>
	</g>
</g>
</svg>
