<?xml version="1.0" encoding="utf-8"?>
<!-- Generator: Adobe Illustrator 16.0.0, SVG Export Plug-In . SVG Version: 6.00 Build 0)  -->
<!DOCTYPE svg PUBLIC "-//W3C//DTD SVG 1.1//EN" "http://www.w3.org/Graphics/SVG/1.1/DTD/svg11.dtd">
<svg version="1.1" id="Layer_1" xmlns="http://www.w3.org/2000/svg" xmlns:xlink="http://www.w3.org/1999/xlink" x="0px" y="0px"
	 width="400.854px" height="401.709px" viewBox="0 0 400.854 401.709" enable-background="new 0 0 400.854 401.709"
	 xml:space="preserve">
<g>
	<g>
		<path fill="#E5E5E5" d="M201.688,389.746c-105.655,0-191.612-85.956-191.612-191.611c0-105.656,85.957-191.615,191.612-191.615
			S393.3,92.478,393.3,198.134C393.3,303.79,307.343,389.746,201.688,389.746z M201.688,16.466
			c-100.17,0-181.665,81.495-181.665,181.668c0,100.17,81.495,181.665,181.665,181.665s181.665-81.495,181.665-181.665
			C383.353,97.961,301.857,16.466,201.688,16.466z"/>
	</g>
	<g>
		<defs>
			<circle id="SVGID_1_" cx="201.688" cy="195.099" r="186.639"/>
		</defs>
		<clipPath id="SVGID_2_">
			<use xlink:href="#SVGID_1_"  overflow="visible"/>
		</clipPath>
		<g clip-path="url(#SVGID_2_)">
			<g>
				<path fill-rule="evenodd" clip-rule="evenodd" fill="#E5E5E5" d="M-36.942,85.791c3.701-1.457,7.329-3.11,11.445-3.176
					c2.115-0.031,3.29-1.442,4.22-3.286c-2.171-1.289-4.196,2.507-5.809-0.384c-0.27-0.479-0.228-1.568,0.119-1.889
					c1.617-1.496,3.659-0.939,5.5-0.614c2.358,0.43,4.896,1.833,3.806-2.734c-0.663-2.78,2.174-3.017,3.769-3.358
					c10.748-2.334,21.681-3.471,32.625-4.415c2.574-0.226,4.595,0.235,6.192,2.8c1.945,3.113,5.217,4.393,8.732,2.817
					c10.219-4.575,20.717-1.581,31.112-1.472c1.357,0.012,2.135,1.085,3.169,1.5c3.684,1.491,6.996,3.453,11.648,1.174
					c3.889-1.906,9.131-1.64,13.337,0.136c5.144,2.173,7.795,0.065,10.235-3.951c3.208-5.284,4.162-5.325,6.754-0.093
					c2.114,4.281,4.914,3.327,8.195,1.746c1.117-0.531,2.744-2.764,3.801-0.398c0.806,1.803-1.251,3.058-2.684,3.175
					c-4.296,0.347-7.422,4.778-12.154,3.336c-0.301-0.095-0.935-0.034-0.971,0.09c-2.12,7.351-10.032,4.962-14.379,8.556
					c-0.949,0.774-2.161,1.229-3.048,2.057c-1.854,1.712-4.781,2.938-4.128,6.156c0.673,3.3,3.509,4.664,6.316,5.755
					c1.442,0.565,3.045,0.794,4.606,0.972c2.424,0.279,4.155,0.74,2.778,3.863c-0.926,2.101-0.112,3.819,2.171,4.523
					c2.477,0.761,3.589-0.592,3.982-2.838c0.539-3.162,3.13-4.17,5.619-4.843c2.904-0.786,3.822-2.225,3.752-5.23
					c-0.153-6.962,7.081-12.028,13.597-9.85c1.784,0.6,3.236,1.45,3.326,3.558c0.197,4.771,2.686,3.866,5.65,2.438
					c5.802-2.805,5.865-2.741,5.348,3.842c-0.271,3.446,1.581,5.596,4.4,6.824c3.378,1.479,2.669,3.244,0.655,5.106
					c-3.025,2.798-6.386,4.629-10.833,4.435c-5.665-0.243-11.447-0.338-17.537,4.026c3.893,0,6.549,0,9.446,0
					c-2.754,5.211-2.754,5.211,7.349,5.065c-4.348,3.932-10.204,3.378-13.832,8.584c-0.141-2.625-0.202-3.812-0.27-5.007
					c0.155-0.192,0.311-0.379,0.463-0.571c-0.174,0.166-0.354,0.338-0.531,0.503c-2.424-0.379-4.648,0.415-6.367,1.911
					c-7.438,6.462-16.488,11.063-21.936,19.85c-2.127,3.426-6.207,5.146-9.667,7.052c-5.1,2.795-6.085,6.777-5.063,11.885
					c0.202,1.029,0.648,2.052,0.617,3.062c-0.061,1.705-1.001,3.262-2.676,3.432c-1.756,0.18-2.12-1.542-2.244-2.965
					c-0.301-3.664-1.09-6.921-5.155-8.295c-2.776-0.934-5.359-1.72-7.468,1.306c-0.959,1.375-2.272,1.936-4.123,1.28
					c-7.533-2.657-14.456,0.779-17.022,8.341c-0.841,2.487-1.625,4.995-2.448,7.491c-1.5,4.505-0.315,7.93,4.1,9.959
					c4.691,2.159,8.089,1.219,10.562-3.326c1.271-2.342,2.82-3.946,5.313-2.856c3.184,1.385,1.034,3.822,0.488,5.833
					c-0.323,1.176-0.763,2.334-1.271,3.441c-1.146,2.494-0.529,3.516,2.324,3.339c4.479-0.265,7.105,0.915,5.493,6.389
					c-1.299,4.407-0.111,8.638,3.154,12.089c-0.136,0.18-0.279,0.352-0.427,0.524c-3.966-0.183-6.192-2.06-7.512-5.998
					c-1.182-3.579-3.916-5.476-7.928-7.195c-7.064-3.021-14.299-4.567-21.584-6.493c-3.385-0.895-6.219-3.822-9.322-5.799
					c-0.944-0.596-1.87-1.375-1.678-2.468c1.044-5.913-2.778-9.871-5.714-14.05c-3.157-4.483-3.659-10.153-7.269-15.648
					c-2.996,6.658,3.611,11.165,1.69,16.882c-3.193-4.396-4.77-9.124-4.813-14.262c-0.021-2.902-0.995-4.894-3.229-6.749
					c-5.5-4.577-6.189-14.225-1.944-20.104c3.676-5.1,7.712-9.962,10.492-15.668c0.619-1.256,0.918-21.61-0.065-22.393
					c-2.149-1.68-3.961-3.861-6.89-4.471c-8.734-1.816-17.372-2.423-25.415,2.365c-4.776,2.847-8.793,0.593-12.95-1.348
					C-36.942,89.304-36.942,87.544-36.942,85.791z"/>
				<path fill-rule="evenodd" clip-rule="evenodd" fill="#E5E5E5" d="M116.829,364.906c-3.556-3.055-7.067-6.07-9.078-10.562
					c-1.141-2.55-2.681-4.456-0.871-7.613c1.498-2.625-0.743-5.845-2.278-7.625c-3.987-4.592-3.897-10.059-4.344-15.296
					c-1.044-12.215-1.979-24.464-1.358-36.743c0.186-3.745-1.148-5.938-4.494-7.922c-7.409-4.391-14.337-9.449-17.45-18.176
					c-0.996-2.773-2.509-5.467-4.296-7.805c-2.164-2.84-5.139-5.222-1.483-8.91c-3.077-8.058,4.521-12.207,6.787-18.31
					c0.915-2.455,2.484-4.483,0.366-7.179c-1-1.282-0.359-3.014,0.921-4.262c1.629-1.598,3.004-3.521,4.832-4.832
					c7.285-5.227,5.755-3.876,8.172,2.814c1.529-0.416,1.405-1.885,1.797-2.963c0.804-2.202,1.931-3.308,4.264-1.809
					c3.075,1.974,6.888,1.384,9.956,2.472c5.898,2.089,11.591,5.16,16.344,9.499c1.699,1.55,3.324,2.832,5.776,3.311
					c6.744,1.307,9.629,6.772,7.339,13.264c-0.136,0.235-0.287,0.471-0.425,0.707c0.265-0.114,0.524-0.231,0.786-0.353
					c4.352-0.274,8.286,0.806,11.646,3.667c1.098,0.933,2.242,1.513,3.757,1.588c6.229,0.311,11.715,2.47,17.04,5.848
					c3.849,2.45,4.466,5.539,2.112,8.186c-6.306,7.079-7.112,15.722-8.091,24.352c-0.916,8.067-4.345,13.352-13.055,14.34
					c-2.891,0.333-4.223,1.568-4.675,5.714c-0.77,7.239-4.34,14.191-9.432,19.871c-2.285,2.545-5.16,0.061-7.69-0.005
					c-0.137,1.447,0.539,2.025,1.211,2.584c1.401,1.163,3.935,1.988,2.417,4.386c-1.316,2.076-2.545,5.075-5.753,4.444
					c-2.404-0.469-3.42,0.041-3.234,2.411c0.317,3.95-2.023,3.703-6.098,2.114c3.562,4.765,4.456,8.512,1.114,12.14
					c-0.109,0.114-0.185,0.454-0.155,0.474c7.511,4.196,0.111,10.233,1.865,15.139c0.109,0.304-0.01,0.689-0.027,1.041
					C119.646,364.906,118.234,364.906,116.829,364.906z"/>
				<path fill-rule="evenodd" clip-rule="evenodd" fill="#E5E5E5" d="M595.019,262.741c-4.781,0.879-7.963-2.115-11.192-4.774
					c-1.97-1.617-3.205-2.839-6.214-1.025c-4.072,2.443-9.809-0.737-11.011-5.378c-0.554-2.159-2.081-3.538-3.878-3.902
					c-5.518-1.132-9.611-3.657-11-9.556c2.727-1.367,4.118-0.333,5.187,2.61c1.777,4.915,3.234,5.226,6.805,1.598
					c1.325-1.348,2.31-1.775,4.06-1.018c3.208,1.396,6.452,2.751,9.771,3.835c4.794,1.554,7.987,4.062,9.396,9.391
					c0.925,3.494,5.221,4.902,8.076,7.168C595.019,262.037,595.019,262.388,595.019,262.741z"/>
				<path fill-rule="evenodd" clip-rule="evenodd" fill="#E5E5E5" d="M327.331,165.988c4.536,10.723,7.44,22.287,15.98,30.956
					c1.215,1.236,2.715,2.664,3.048,4.221c2.278,10.735,10.469,8.56,17.378,7.56c4.737-0.688,4.273,1.233,3.421,4.053
					c-2.035,6.71-6.325,12.091-11.01,17.05c-4.954,5.243-9.104,11.085-13.589,16.678c-1.654,2.064-1.553,4.448-0.898,6.999
					c1.175,4.558,2.601,9.03,2.795,13.86c0.167,4.327-1.205,7.431-4.678,9.869c-5.435,3.822-9.796,8.193-7.389,15.753
					c0.18,0.578,0.062,1.562-0.321,1.967c-6.651,7.068-11.056,16.103-19.111,21.933c-4.422,3.208-9.735,3.655-14.873,4.369
					c-1.882,0.257-2.922-1.736-3.235-3.577c-0.738-4.402-2.287-8.334-5.193-11.857c-1.248-1.514-2.019-3.883-2.004-5.857
					c0.051-6.834-2.924-12.574-6.061-18.229c-1.836-3.317-1.912-6.53-0.189-9.507c6.16-10.635,1.66-20.008-3.77-28.822
					c-2.047-3.324-3.852-5.479-2.299-9.65c1.735-4.66-0.761-8.007-5.651-9.129c-0.828-0.184-1.955-0.26-2.382-0.812
					c-4.313-5.666-9.607-4.603-15.146-2.424c-4.232,1.668-8.826,1.898-13.217,2.947c-5.219,1.246-9.24-2.493-12.475-6.369
					c-3.342-4.012-5.462-8.844-9.332-12.615c-2.285-2.239-1.8-6.183-0.518-9.479c1.292-3.326,1.717-6.697,0.799-10.293
					c-1.209-4.76,2.062-8.337,4.094-12.055c1.489-2.7,3.889-4.944,6.086-7.197c2.523-2.584,4.551-5.246,6.268-8.613
					c3.084-6.068,8.654-9.884,15.949-9.563c7.897,0.35,15.246-2.642,22.963-3.393c3.303-0.33,5.16-1.095,3.682,3.429
					c-1.754,5.353,3.081,6.375,6.279,7.803c1.826,0.811,4.023,0.996,5.804,2.171c3.82,2.509,7.481,4.502,10.065-1.562
					c0.906-2.115,2.514-1.083,3.979-0.34c6.848,3.448,14.409,2.31,21.637,3.016c3.877,0.375,8.664-8.207,7.178-11.809
					c-0.663-1.61-2.094-1.656-3.535-1.658c-2.98-0.006-5.981,0.167-8.947-0.083c-4.594-0.394-8.222-2.086-8.222-7.579
					c0-1.709-0.398-3.8-2.484-2.467c-1.516,0.969-6.151-1.234-4.41,3.602c0.761,2.114,0.049,4.147-1.595,4.834
					c-1.637,0.678-2.602-1.396-3.247-2.795c-1.258-2.668-3.626-4.732-4.092-7.867c-0.212-1.411-11.775-9.704-13.099-9.611
					c-2.251,0.143-1.431,1.479-0.854,2.549c1.479,2.744,3.899,4.4,6.629,5.766c3.3,1.65,4.711,3.8,1.037,7.049
					c-2.761-6.309-10.328-6.82-14.152-11.959c-0.299-0.406-1.833-0.532-1.936-0.33c-1.957,3.715-6.462,1.109-8.247,2.889
					c-3.045,3.039-7.574,4.6-8.852,9.746c-1.371,5.52-12.887,7.875-17.076,4.014c-1.461-1.348-1.537-3.094-1.332-4.874
					c0.213-1.908,0.58-3.798,0.803-5.704c0.576-4.92,2.264-5.959,7.092-4.213c1.962,0.711,3.87,2.011,5.971,0.607
					c3.113-2.099,3.303-4.483,0.862-7.427c-0.581-0.709-6.095-2.39-0.032-3.89c1.357-0.333-1.818-1.202-1.072-2.72
					c4.528-0.279,8.514-1.831,12.057-5.189c6.248-5.918,13.171-8.925,22.513-6.972c3.046,0.636,10.996,2.413,11.999-5.651
					c0.041-0.308,0.838-0.828,1.17-0.748c5.525,1.316,2.54-2.906,3.089-4.755c0.867-0.822,1.671,0.039,2.489,0.018
					c1.695-0.034,3.551-0.377,3.471-2.314c-0.098-2.411-2.169-1.615-3.66-1.436c-6.01,0.761-6.549-0.004-4.106-6.036
					c0.401-1.006,0.894-2.016,0.1-2.937c-0.92-1.068-1.938-0.196-2.849,0.173c-4.482,1.794-7.312,4.412-6.078,9.961
					c1.008,4.551-1.763,7.516-5.529,9.512c-2.064,1.091-3.769,0.209-4.897-1.675c-2.278-3.811-5.287-6.329-10.027-5.676
					c-1.226,0.168-1.573-0.364-1.681-1.326c-0.177-1.609-0.216-4.048,1.057-4.355c6.479-1.571,9.306-7.541,13.546-11.455
					c10.593-9.796,22.024-7.849,33.963-4.879c2.192,0.539,4.317,1.401,6.444,2.184c0.988,0.359,2.055,0.853,1.775,2.19
					c-0.289,1.418-1.32,1.97-2.729,1.843c-0.165-0.015-0.327-0.136-0.493-0.187c-2.01-0.612-4.298-1.431-5.786,0.449
					c-0.882,1.104,0.859,2.101,1.802,2.739c2.173,1.483,4.167,4.375,7.244,1.58c3.562-3.234,7.576-5.562,12.178-7.042
					c3.149-1.008,6.522-0.903,9.443-1.578c6.854-1.589,13.053-1.962,19.439,1.214c1.355,0.676,3.383,0.008,4.276-1.348
					c1.168-1.771-1.442-1.952-1.851-3.186c-0.592-1.821-3.885-3.48-1.668-5.297c2.231-1.826,5.046-0.27,6.975,1.761
					c1.678,1.768,1.772,4.097,1.818,6.416c0.036,1.515,0.694,2.788,2.511,2.744c1.37-0.042,2.55-0.671,2.331-2.2
					c-0.556-3.893,4.328-0.02,4.466-3.301c0.085-2.146-1.826-3.996-0.683-6.104c0.568-1.057,1.836-0.774,2.834-1.029
					c6.164-1.542,12.502-1.591,18.373-5.374c3.706-2.393,9.551-1.103,14.439-0.554c1.382,0.146,2.736,0.626,4.111,0.677
					c6.525,0.261,6.525,0.229,3.14,6.445c8.832-1.663,16.862,3.978,25.437,0.281c1.863-0.806,4.315-0.655,6.184,0.359
					c5.301,2.883,11.238,2.314,16.864,3.43c2.976,0.595,6.081,0.58,8.002-2.448c1.008-1.578,2.044-1.435,3.528-0.811
					c7.94,3.378,16.527,2.263,24.706,3.577c7.744,1.248,15.634,1.389,23.261,3.287c1.013,0.248,2.326,0.933,3.026,0.547
					c8.237-4.515,15.92,0.053,23.69,1.539c3.16,0.605,6.241,0.527,9.345,0.816c3.528,0.323,6.972,0.906,9.293,4.757
					c-5.085,1.333-10.441-5.157-14.98,0.727c1.984,2.385,5.005,3.157,8.017,5.306c-2.605,0.996-4.9,1.398-6.53,3.269
					c-1.049,1.194-2.156,5.024-5.015,0.928c-0.745-1.073-3.938,0.712-5.077,2.569c-0.962,1.559-0.274,2.727,1.386,3.824
					c4.595,3.035,6.151,9.797,3.621,14.26c-0.82,1.452-1.772,0.905-2.484,0.124c-3.368-3.701-6.869-7.31-9.869-11.295
					c-1.505-1.998-1.405-4.682,0.564-6.792c1.738-1.865,0.682-3.858-0.272-5.318c-1.062-1.629-2.775-0.801-4.146,0.229
					c-0.402,0.304-1.103,0.816-1.338,0.683c-5.134-2.919-6.214,0.216-6.885,4.378c-0.252,1.613-1.391,2.074-3.176,1.627
					c-3.045-0.762-6.353-0.696-9.257-1.77c-4.997-1.858-7.642,1.396-10.272,4.285c-1.846,2.035-1.981,5.09-0.869,7.507
					c0.923,2.003,3.507,2.365,5.568,2.073c5.614-0.801,9.658,1.039,12.849,5.826c2.243,3.36,1.913,14.937-1.188,17.578
					c-0.493,0.423-1.277,0.867-1.846,0.775c-5.345-0.857-5.155,3.592-6.282,6.598c-1.398,3.718,2.04,4.738,4.051,6.433
					c2.145,1.821,5.825,2.902,2.744,6.795c-0.988,1.241-1.975,2.615-3.842,2.22c-1.671-0.346-1.901-1.727-2.149-3.201
					c-0.753-4.463-6.642-4.944-7.496-9.51c-0.144-0.762-1.534-0.435-2.263,0.188c-2.028,1.731-3.106,0.82-3.735-1.333
					c-1.132-3.915-2.907-2.501-4.745-0.568c-0.359,0.379-0.758,0.755-0.986,1.217c-0.908,1.853-3.633,3.411-2.805,5.32
					c0.916,2.103,3.76,0.853,5.722,0.903c3.087,0.082,5.237,0.306,2.479,3.924c-1.285,1.676-0.057,3.053,0.835,4.255
					c1.552,2.12,3.334,4.06,5.022,6.078c4.822,5.777,3.489,14.808-2.759,18.982c-2.744,1.826-6.367,1.563-8.796,4.386
					c-2.178,2.533-3.123,5.801-5.146,8.232c-1.54-0.43-1.382-1.428-1.357-2.234c0.087-2.613-0.141-5.111-3.317-5.663
					c-2.883-0.495-3.72,2.14-5.1,3.832c-2.078,2.532-0.33,4.092,1.508,5.639c2.873,2.419,4.691,5.646,6.707,8.728
					c1.893,2.896,1.659,5.513-0.531,8.172c-5.848,7.1-6.962,7.068-13.182-0.282c-1.384-1.63-2.501-4.951-4.555-4.257
					c-2.541,0.853-1.553,4.247-1.766,6.635c-0.1,1.116,0.466,2.459-1.382,3.61c-1.591-4.058,0.126-8.453-1.642-12.2
					c-1.039-2.19-0.5-6.287-5.146-4.471c-0.377,0.146-1.564-0.559-1.589-0.922c-0.337-4.91-5.296-6.576-7.231-10.542
					c-3.06-6.248-9.569-6.627-14.118-1.384c-1.516,1.74-2.979,3.504-4.995,4.572c-6.431,3.399-8.396,8.934-8.048,15.791
					c0.168,3.221,1.027,6.732-2.8,8.835c-2.349,1.287-4.082,1.274-4.776-1.598c-2.13-8.788-8.65-16.142-8.334-25.743
					c0.046-1.314-0.807-3.636-2.033-3.138c-6.175,2.54-7.977-3.135-10.976-5.838c-3.271-2.948-6.55-4.325-10.848-4.172
					c-5.603,0.194-11.357,0.581-15.536-4.438c-0.282-0.343-0.975-0.549-1.447-0.508c-6.725,0.631-11.47-3.252-17.211-8.273
					c1.159,6.194,2.211,11.063,5.506,14.856c3.091,3.567,6.85,1.535,9.133-0.998c2.902-3.22,3.827-2.564,4.961,1.013
					c0.343,1.073,1.316,2.246,2.314,2.775c5.479,2.885,2.656,5.343,0.394,8.953c-5.573,8.893-15.061,11.666-23.437,16.105
					c-4.764,2.523-7.396,0.887-8.684-4.609c-0.869-3.705-2.295-7.029-4.854-9.752c-5.369-5.736-6.923-13.742-11.981-19.704
					c-1.663-1.967-3.164-3.122-5.699-2.715c-0.214-0.138-0.428-0.276-0.641-0.425C327.057,165.555,327.188,165.766,327.331,165.988z
					"/>
				<path fill-rule="evenodd" clip-rule="evenodd" fill="#E5E5E5" d="M574.436,264.997c2.69,5.573,4.866,10.323,5.707,16.119
					c0.456,3.167,2.97,8.196,6.598,10.578c4.435,2.899,4.448,6.962,3.696,11.052c-0.853,4.597-2.285,9.133-5.717,12.719
					c-4.356,4.551-8.543,9.265-13.757,12.905c-4.126,2.875-8.72,3.205-13.548,2.741c-2.943-0.289-4.391-1.632-4.636-4.595
					c-0.175-2.063-0.85-4.082-1.046-6.142c-0.178-1.797-1.186-2.282-2.409-1.438c-3.478,2.414-4.384,0.467-5.712-2.491
					c-1.326-2.942-9.069-3.574-13.852-1.425c-7.073,3.184-14.723,4.317-22.103,6.384c-2.788,0.782-4.337,0.146-3.142-3.489
					c2.098-6.404-0.438-13.058,0.783-19.735c1.018-5.595,3.312-9.43,8.488-10.421c8.945-1.711,14.329-8.071,20.089-14.002
					c2.358-2.43,3.925-5.368,7.064-0.82c0.867,1.248,2.401,2.014,3.825-0.748c1.709-3.314,4.545-6.224,8.96-6.326
					c3.647-0.092,6.686-0.242,5.126,5.309c-1.109,3.976,2.948,5.782,5.699,7.101c2.978,1.426,5.297-0.437,6.363-3.635
					C571.903,271.674,573.047,268.763,574.436,264.997z"/>
				<path fill-rule="evenodd" clip-rule="evenodd" fill="#E5E5E5" d="M158.521,50.828c3.273,0,6.071,0.185,8.828-0.078
					c1.328-0.121,2.998-1.098,2.715-2.686c-0.367-2.066-2.184-1.127-3.386-0.816c-8.854,2.273-17.972,3.561-26.299,7.781
					c-4.5,2.272-8.463-1.11-12.047-3.041c-2.13-1.141,0.007-3.819,1.931-3.934c9.03-0.537,17.186-4.539,25.871-6.132
					c4.473-0.823,9.391,0.323,14.041,1.008c7.509,1.098,14.944,1.194,22.465,0.02c4.184-0.653,8.043,2.037,12.362,1.743
					c8.019-0.534,16.101,0.709,24.114-0.939c1.57-0.32,3.385,0.583,5.097,0.853c1.059,0.167,2.183,0.26,2.53,1.474
					c0.442,1.569-0.828,2.108-1.859,2.752c-2.115,1.318-3.961,2.697-4.394,5.512c-0.48,3.172-3.562,3.273-5.782,3.562
					c-3.528,0.444-4.939,1.965-4.677,5.459c0.282,3.66-1.537,5.637-5.253,5.637c-9.966-0.013-17.988,5.969-27.018,8.836
					c-3.127,1.001-3.987,4.73-5.85,7.232c-3.409,4.587-5.175,4.623-9.048,0.393c-2.897-3.161-3.507-7.146-4.4-11.044
					c-0.524-2.282,0.575-3.198,2.844-3.164c4.339,0.054,4.595-2.12,3.751-5.856c-1.621-7.234-5.755-11.312-13.062-12.249
					C160.833,53,159.482,53.209,158.521,50.828z"/>
				<path fill-rule="evenodd" clip-rule="evenodd" fill="#E5E5E5" d="M145.214,76.359c-0.265,1.506,2.814,4.371-1.71,4.175
					c-0.364-0.022-0.99,0.478-1.1,0.85c-0.382,1.362,1.755,4.005-1.479,3.832c-3.54-0.192-6.855-1.843-9.468-4.15
					c-1.678-1.481,0.508-2.243,1.607-2.836c2.19-1.173,4.694-2.105,3.675-5.382c-0.934-3.03-1.749-6.114-5.991-6.146
					c-2.368-0.022-4.66-1.853-7.12-0.565c-1.061,0.558-1.962,1.748-3.084,0.237c-0.663-0.886-0.898-1.981-0.384-2.972
					c0.653-1.241,1.571-2.57,3.113-2.492c6.607,0.348,13.419-0.653,19.595,2.854c1.406,0.799,5.774,8.788,5.611,10.464
					c-0.203,2.093-1.784,1.772-3.104,1.974c-0.187-0.141-0.381-0.281-0.562-0.422C144.944,75.973,145.08,76.169,145.214,76.359z"/>
				<path fill-rule="evenodd" clip-rule="evenodd" fill="#E5E5E5" d="M509.764,243.651c-4.276,1.134-6.627-1.216-7.814-5.221
					c-0.668-2.282-2.001-4.966,2.188-5.309c1.036-0.082,1.578-0.903,1.743-1.704c1.132-5.566,6.913-6.346,10.029-9.853
					c0.923-1.049,2.024-1.238,3.269-0.503c1.27,0.751,2.574,1.756,2.052,3.273c-1.749,5.168,1.032,10.928-3.546,16.096
					C515.097,243.34,513.19,244.003,509.764,243.651z"/>
				<path fill-rule="evenodd" clip-rule="evenodd" fill="#E5E5E5" d="M364.296,268.488c2.032,5.295,0.639,10.066-1.3,14.74
					c-1.593,3.856-3.773,7.422-4.06,11.836c-0.231,3.529-3.432,3.68-6.033,3.322c-2.549-0.35-4.73-6.09-2.717-8.487
					c2.873-3.409,2.805-7.015,2.543-10.837c-0.168-2.548,1.588-3.16,3.293-4.117C359.014,273.262,362.663,272.372,364.296,268.488z"
					/>
				<path fill-rule="evenodd" clip-rule="evenodd" fill="#E5E5E5" d="M63.585,63.268c3.989-4.4,9.397-5.552,13.579-2.314
					c4.128,3.2,8.179,3.239,12.761,1.831c1.057-0.323,2.865-1.97,3.393,0.371c0.432,1.921,0.853,4.541-1.744,5.423
					c-6.155,2.093-12.591,1.049-18.914,1.2c-0.433,0.012-1.256-0.498-1.26-0.79C71.236,64.028,66.635,65.013,63.585,63.268z"/>
				<path fill-rule="evenodd" clip-rule="evenodd" fill="#E5E5E5" d="M472.964,223.666c7.783,6.348,15.977,12.3,20.148,22.064
					c0.85,1.993,0.245,3.385-1.183,4.631c-1.469,1.284-2.901,0.296-3.618-0.746c-5.65-8.249-11.163-16.603-16.719-24.92
					C472.052,224.351,472.511,224.005,472.964,223.666z"/>
				<path fill-rule="evenodd" clip-rule="evenodd" fill="#E5E5E5" d="M67.615,213.933c0.804,0.206,1.566,0.479,1.855,1.382
					l-0.09,0.087c-0.944,0.18-1.671-0.143-2.192-0.944C67.336,214.285,67.479,214.113,67.615,213.933z"/>
				<path fill-rule="evenodd" clip-rule="evenodd" fill="#E5E5E5" d="M69.471,215.315c0.136,0.191,0.284,0.378,0.43,0.57
					c-0.173-0.165-0.345-0.328-0.513-0.488C69.381,215.402,69.471,215.315,69.471,215.315z"/>
				<path fill-rule="evenodd" clip-rule="evenodd" fill="#E5E5E5" d="M121.003,124.717c0.178-0.165,0.357-0.337,0.531-0.503
					c-0.152,0.192-0.308,0.379-0.463,0.571L121.003,124.717z"/>
				<path fill-rule="evenodd" clip-rule="evenodd" fill="#E5E5E5" d="M138.091,236.614c-0.262,0.121-0.521,0.238-0.786,0.353
					c0.138-0.236,0.289-0.472,0.425-0.707C137.729,236.251,138.091,236.614,138.091,236.614z"/>
				<path fill-rule="evenodd" clip-rule="evenodd" fill="#E5E5E5" d="M327.331,165.988c-0.144-0.222-0.274-0.433-0.42-0.646
					c0.213,0.148,0.427,0.287,0.641,0.425L327.331,165.988z"/>
				<path fill-rule="evenodd" clip-rule="evenodd" fill="#E5E5E5" d="M145.214,76.359c-0.134-0.189-0.27-0.386-0.4-0.58
					c0.182,0.141,0.376,0.281,0.562,0.422C145.376,76.194,145.214,76.359,145.214,76.359z"/>
			</g>
		</g>
	</g>
</g>
<rect x="-146.146" y="-79.145" fill="none" width="455" height="370"/>
</svg>
