<?xml version="1.0" encoding="utf-8"?>
<!-- Generator: Adobe Illustrator 16.0.0, SVG Export Plug-In . SVG Version: 6.00 Build 0)  -->
<!DOCTYPE svg PUBLIC "-//W3C//DTD SVG 1.1//EN" "http://www.w3.org/Graphics/SVG/1.1/DTD/svg11.dtd">
<svg version="1.1" id="Layer_1" xmlns="http://www.w3.org/2000/svg" xmlns:xlink="http://www.w3.org/1999/xlink" x="0px" y="0px"
	 width="179px" height="173.332px" viewBox="0 0 179 173.332" enable-background="new 0 0 179 173.332" xml:space="preserve">
<g>
	<g>
		<defs>
			<polyline id="SVGID_1_" points="179,173.5 -51,173.5 -51,-12.5 179,-12.5 179,173.5 			"/>
		</defs>
		<clipPath id="SVGID_2_">
			<use xlink:href="#SVGID_1_"  overflow="visible"/>
		</clipPath>
		<path clip-path="url(#SVGID_2_)" fill="#D4D2D2" d="M145.194,52.356c-0.065,0-0.129,0-0.194,0v2.141l-0.694-0.011l-0.047-2.124
			c-1.634,0.021-3.271,0.097-4.912,0.229l0.175,2.145l-0.816,0.07l-0.2-2.143c-1.674,0.155-3.351,0.368-5.025,0.641l0.346,2.109
			l-0.807,0.154l-0.373-2.122c-1.655,0.29-3.308,0.638-4.958,1.046l0.521,2.097l-0.798,0.191L126.87,54.7
			c-1.625,0.422-3.244,0.902-4.858,1.442l0.685,2.046l-0.773,0.272l-0.711-2.046c-0.663,0.23-1.325,0.471-1.985,0.722
			c-0.312,0.118-0.624,0.239-0.933,0.361l0.975,2.566l-1.871,0.71l-0.189-0.499l-0.639,0.262l-0.861-1.961
			c-1.557,0.684-3.081,1.418-4.566,2.197l1.002,1.914l-0.723,0.385l-1.025-1.903c-1.495,0.806-2.955,1.661-4.375,2.559l1.141,1.807
			c0,0-0.173,0.107-0.342,0.224c-0.172,0.114-0.341,0.228-0.341,0.228l-1.168-1.803c-1.423,0.923-2.808,1.892-4.151,2.903
			l1.293,1.721l-0.659,0.489l-1.307-1.698c-1.341,1.034-2.645,2.114-3.901,3.23l1.42,1.602l-0.604,0.552l-1.443-1.589
			c-1.252,1.139-2.463,2.32-3.627,3.537l1.536,1.473c0,0-0.144,0.146-0.288,0.291c-0.137,0.152-0.274,0.305-0.274,0.305
			l-1.554-1.455c-1.156,1.236-2.266,2.51-3.33,3.817l1.656,1.349l-0.52,0.635l-1.666-1.325c-1.052,1.324-2.057,2.683-3.012,4.073
			l1.752,1.207l-0.456,0.68l-1.77-1.188c-0.942,1.404-1.834,2.838-2.677,4.301l1.833,1.057c0,0-0.109,0.175-0.209,0.354
			c-0.098,0.18-0.193,0.359-0.193,0.359l-1.848-1.036c-0.827,1.474-1.602,2.975-2.325,4.501l1.924,0.912l-0.355,0.74l-1.926-0.886
			c-0.706,1.534-1.358,3.091-1.958,4.67l1.986,0.753l-0.281,0.771l-2-0.733c-0.581,1.584-1.108,3.191-1.58,4.813l2.03,0.589
			c0,0-0.065,0.194-0.113,0.393c-0.052,0.199-0.103,0.397-0.103,0.397l-2.045-0.568c-0.453,1.625-0.849,3.267-1.19,4.924
			l2.091,0.428l-0.168,0.803l-2.088-0.402c-0.32,1.654-0.584,3.324-0.791,5.002l2.119,0.258l-0.09,0.815l-2.127-0.235
			c-0.186,1.675-0.314,3.359-0.385,5.051l2.126,0.086c0,0-0.018,0.205-0.016,0.409c-0.003,0.205-0.005,0.409-0.005,0.409
			l-2.135-0.061c-0.05,1.683-0.042,3.373,0.025,5.066l2.148-0.087l0.029,0.819l-2.139,0.112c0.086,1.678,0.232,3.365,0.437,5.047
			l2.133-0.261l0.111,0.812l-2.138,0.287c0.222,1.666,0.504,3.333,0.845,4.996l2.106-0.434c0,0,0.038,0.202,0.076,0.403
			c0.033,0.203,0.087,0.4,0.087,0.4l-2.095,0.457c0.356,1.641,0.771,3.279,1.246,4.912l2.079-0.605l0.232,0.786l-2.07,0.629
			c0.425,1.402,0.896,2.803,1.41,4.195l0.367-0.139l0.355,0.934l-0.37,0.141l0,0l2.001-0.76l0.247,0.59l-1.995,0.819
			c0.601,1.518,1.246,3.002,1.936,4.458l1.957-0.927l0.348,0.743l-1.938,0.945c0.745,1.527,1.54,3.02,2.378,4.474l1.864-1.074
			l0.421,0.704l-1.858,1.099c0.866,1.462,1.776,2.882,2.733,4.266l1.769-1.22l0.457,0.681l-1.742,1.231
			c0.979,1.383,2.005,2.729,3.07,4.03l1.665-1.36l0.521,0.633l-1.647,1.377c0.185,0.221,0.369,0.438,0.556,0.656h3.823
			c-5.92-6.423-10.737-14.058-14.021-22.712c-13.803-36.364,4.552-77.179,40.915-90.982c8.214-3.118,16.649-4.594,24.955-4.594
			c11.901,0,23.527,3.036,33.805,8.625v-2.385l-0.637,1.215l-0.723-0.389l0.958-1.88c-1.505-0.766-3.036-1.481-4.59-2.143
			l-0.834,1.959l-0.756-0.319l0.812-1.966c-1.559-0.643-3.146-1.235-4.746-1.771l-0.671,2.008l-0.782-0.244l0.651-2.026
			c-1.607-0.518-3.231-0.98-4.874-1.386l-0.51,2.065l-0.793-0.207l0.483-2.056c-1.643-0.387-3.297-0.717-4.967-0.991l-0.344,2.107
			l-0.809-0.129l0.319-2.11c-1.667-0.253-3.344-0.45-5.032-0.588l-0.172,2.121l-0.818-0.049l0.148-2.136
			C148.615,52.417,146.908,52.356,145.194,52.356"/>
		<polyline clip-path="url(#SVGID_2_)" fill="#D4D2D2" points="115.01,48.846 113.141,49.556 116.054,57.232 117.328,60.227 
			117.209,60.275 117.398,60.774 119.27,60.064 118.295,57.498 115.01,48.846 		"/>
		<polyline clip-path="url(#SVGID_2_)" fill="#D4D2D2" points="90.094,170.834 88.429,172.194 86.83,173.5 88.184,173.5 
			88.968,172.844 90.615,171.467 90.094,170.834 		"/>
		<polyline clip-path="url(#SVGID_2_)" fill="#D4D2D2" points="86.645,166.252 84.875,167.472 81.707,169.656 82.204,170.394 
			85.359,168.164 87.102,166.933 86.645,166.252 		"/>
		<polyline clip-path="url(#SVGID_2_)" fill="#D4D2D2" points="83.58,161.402 81.716,162.476 78.383,164.396 78.839,165.16 
			82.143,163.206 84.001,162.106 83.58,161.402 		"/>
		<polyline clip-path="url(#SVGID_2_)" fill="#D4D2D2" points="80.928,156.314 78.971,157.241 75.508,158.882 75.885,159.686 
			79.337,158.002 81.275,157.058 80.928,156.314 		"/>
		<polyline clip-path="url(#SVGID_2_)" fill="#D4D2D2" points="78.783,151.375 76.782,152.135 75.427,152.649 73.177,153.503 
			73.481,154.242 77.035,152.784 79.03,151.965 78.783,151.375 		"/>
		<polyline clip-path="url(#SVGID_2_)" fill="#D4D2D2" points="76.856,145.59 74.778,146.195 71.098,147.266 71.35,148.119 
			75.019,147.005 77.089,146.376 76.856,145.59 		"/>
		<path clip-path="url(#SVGID_2_)" fill="#D4D2D2" d="M75.464,140.022l-2.106,0.434l-3.768,0.775c0,0,0.041,0.218,0.082,0.437
			c0.037,0.221,0.096,0.436,0.096,0.436l3.765-0.821l2.095-0.457c0,0-0.054-0.197-0.087-0.4
			C75.502,140.225,75.464,140.022,75.464,140.022"/>
		<polyline clip-path="url(#SVGID_2_)" fill="#D4D2D2" points="74.54,134.361 72.407,134.623 68.587,135.091 68.707,135.972 
			72.513,135.46 74.651,135.173 74.54,134.361 		"/>
		<polyline clip-path="url(#SVGID_2_)" fill="#D4D2D2" points="74.08,128.645 71.932,128.732 68.088,128.889 68.12,129.776 
			71.97,129.576 74.109,129.464 74.08,128.645 		"/>
		<path clip-path="url(#SVGID_2_)" fill="#D4D2D2" d="M68.07,122.666c0,0-0.019,0.222-0.018,0.443
			c-0.002,0.223-0.006,0.445-0.006,0.445l3.86,0.111l2.135,0.061c0,0,0.002-0.204,0.005-0.409c-0.002-0.204,0.016-0.409,0.016-0.409
			l-2.126-0.086L68.07,122.666"/>
		<polyline clip-path="url(#SVGID_2_)" fill="#D4D2D2" points="68.586,116.465 68.487,117.348 72.321,117.771 74.448,118.006 
			74.538,117.19 72.419,116.932 68.586,116.465 		"/>
		<polyline clip-path="url(#SVGID_2_)" fill="#D4D2D2" points="69.59,110.326 69.407,111.196 73.21,111.93 75.298,112.332 
			75.466,111.529 73.375,111.101 69.59,110.326 		"/>
		<path clip-path="url(#SVGID_2_)" fill="#D4D2D2" d="M71.067,104.283c0,0-0.071,0.211-0.123,0.427
			c-0.057,0.215-0.112,0.431-0.112,0.431l3.733,1.037l2.045,0.568c0,0,0.051-0.198,0.103-0.397c0.048-0.198,0.113-0.393,0.113-0.393
			l-2.03-0.589L71.067,104.283"/>
		<polyline clip-path="url(#SVGID_2_)" fill="#D4D2D2" points="73.05,98.388 72.743,99.222 76.375,100.552 78.375,101.285 
			78.656,100.514 76.67,99.761 73.05,98.388 		"/>
		<polyline clip-path="url(#SVGID_2_)" fill="#D4D2D2" points="75.49,92.667 75.106,93.47 78.628,95.09 80.555,95.977 80.91,95.236 
			78.986,94.324 75.49,92.667 		"/>
		<path clip-path="url(#SVGID_2_)" fill="#D4D2D2" d="M78.366,87.152c0,0-0.113,0.191-0.227,0.383
			c-0.105,0.195-0.211,0.391-0.211,0.391l3.383,1.897l1.848,1.036c0,0,0.096-0.18,0.193-0.359c0.1-0.179,0.209-0.354,0.209-0.354
			l-1.833-1.057L78.366,87.152"/>
		<polyline clip-path="url(#SVGID_2_)" fill="#D4D2D2" points="81.69,81.896 81.196,82.635 84.405,84.789 86.175,85.978 
			86.631,85.298 84.879,84.091 81.69,81.896 		"/>
		<polyline clip-path="url(#SVGID_2_)" fill="#D4D2D2" points="85.427,76.922 84.863,77.609 87.891,80.019 89.557,81.344 
			90.076,80.709 88.42,79.36 85.427,76.922 		"/>
		<path clip-path="url(#SVGID_2_)" fill="#D4D2D2" d="M89.538,72.252c0,0-0.158,0.158-0.312,0.316c-0.149,0.165-0.3,0.33-0.3,0.33
			l2.824,2.645l1.554,1.455c0,0,0.138-0.152,0.274-0.305c0.145-0.145,0.288-0.291,0.288-0.291l-1.536-1.473L89.538,72.252"/>
		<polyline clip-path="url(#SVGID_2_)" fill="#D4D2D2" points="94.028,67.943 93.369,68.542 95.958,71.393 97.401,72.982 
			98.006,72.431 96.586,70.829 94.028,67.943 		"/>
		<polyline clip-path="url(#SVGID_2_)" fill="#D4D2D2" points="98.851,64.012 98.137,64.543 100.487,67.599 101.794,69.297 
			102.453,68.808 101.16,67.086 98.851,64.012 		"/>
		<path clip-path="url(#SVGID_2_)" fill="#D4D2D2" d="M103.962,60.464c0,0-0.188,0.116-0.373,0.243
			c-0.184,0.123-0.369,0.247-0.369,0.247l2.092,3.229l1.168,1.803c0,0,0.169-0.113,0.341-0.228c0.169-0.116,0.342-0.224,0.342-0.224
			l-1.141-1.807L103.962,60.464"/>
		<polyline clip-path="url(#SVGID_2_)" fill="#D4D2D2" points="109.363,57.375 108.577,57.793 110.396,61.169 111.422,63.072 
			112.145,62.688 111.143,60.773 109.363,57.375 		"/>
		<polyline clip-path="url(#SVGID_2_)" fill="#D4D2D2" points="114.98,54.709 114.158,55.045 115.709,58.576 116.57,60.537 
			117.209,60.275 117.328,60.227 116.054,57.232 114.98,54.709 		"/>
		<polyline clip-path="url(#SVGID_2_)" fill="#D4D2D2" points="120.793,52.502 119.955,52.796 121.213,56.415 121.924,58.461 
			122.697,58.188 122.012,56.143 120.793,52.502 		"/>
		<polyline clip-path="url(#SVGID_2_)" fill="#D4D2D2" points="126.765,50.77 125.902,50.977 126.87,54.7 127.411,56.781 
			128.209,56.59 127.688,54.493 126.765,50.77 		"/>
		<polyline clip-path="url(#SVGID_2_)" fill="#D4D2D2" points="132.855,49.496 131.981,49.661 132.646,53.446 133.02,55.568 
			133.826,55.414 133.48,53.305 132.855,49.496 		"/>
		<polyline clip-path="url(#SVGID_2_)" fill="#D4D2D2" points="139.034,48.76 138.148,48.836 138.505,52.664 138.705,54.807 
			139.521,54.736 139.347,52.591 139.034,48.76 		"/>
		<polyline clip-path="url(#SVGID_2_)" fill="#D4D2D2" points="144.174,48.49 144.259,52.362 144.306,54.486 145,54.497 145,52.356 
			145,48.5 144.174,48.49 		"/>
		<polyline clip-path="url(#SVGID_2_)" fill="#D4D2D2" points="150.582,48.688 150.314,52.536 150.166,54.672 150.984,54.721 
			151.156,52.6 151.469,48.744 150.582,48.688 		"/>
		<polyline clip-path="url(#SVGID_2_)" fill="#D4D2D2" points="156.766,49.369 156.188,53.188 155.869,55.299 156.678,55.428 
			157.021,53.32 157.644,49.51 156.766,49.369 		"/>
		<polyline clip-path="url(#SVGID_2_)" fill="#D4D2D2" points="162.877,50.529 161.989,54.311 161.506,56.367 162.299,56.574 
			162.809,54.509 163.738,50.751 162.877,50.529 		"/>
		<polyline clip-path="url(#SVGID_2_)" fill="#D4D2D2" points="168.867,52.212 167.683,55.896 167.031,57.922 167.813,58.166 
			168.484,56.158 169.714,52.479 168.867,52.212 		"/>
		<polyline clip-path="url(#SVGID_2_)" fill="#D4D2D2" points="174.707,54.352 173.23,57.929 172.419,59.895 173.175,60.214 
			174.009,58.255 175.524,54.695 174.707,54.352 		"/>
		<polyline clip-path="url(#SVGID_2_)" fill="#D4D2D2" points="179,59.61 178.599,60.398 177.641,62.278 178.363,62.667 179,61.452 
			179,59.61 		"/>
		<polyline clip-path="url(#SVGID_2_)" fill="#D4D2D2" points="76.796,151.061 76.429,151.2 65.577,155.318 65.932,156.254 
			73.177,153.503 75.427,152.649 76.782,152.135 77.151,151.994 76.796,151.061 		"/>
		<polyline clip-path="url(#SVGID_2_)" fill="#D4D2D2" points="172.984,165.326 172.349,165.797 175.854,170.664 176.567,170.133 
			172.984,165.326 		"/>
		<polyline clip-path="url(#SVGID_2_)" fill="#D4D2D2" points="161.684,171.586 160.683,171.987 161.257,173.5 162.393,173.5 
			161.684,171.586 		"/>
		<polyline clip-path="url(#SVGID_2_)" fill="#D4D2D2" points="124.186,170.677 122.917,173.5 123.833,173.5 124.915,170.983 
			124.186,170.677 		"/>
		<polyline clip-path="url(#SVGID_2_)" fill="#D4D2D2" points="113.437,164.026 109.648,168.676 110.338,169.239 114.049,164.527 
			113.437,164.026 		"/>
		<polyline clip-path="url(#SVGID_2_)" fill="#D4D2D2" points="104.771,154.839 99.902,158.342 100.435,159.057 105.242,155.474 
			104.771,154.839 		"/>
		<polyline clip-path="url(#SVGID_2_)" fill="#D4D2D2" points="98.809,143.773 93.201,145.902 93.53,146.709 99.096,144.475 
			98.809,143.773 		"/>
		<path clip-path="url(#SVGID_2_)" fill="#D4D2D2" d="M95.876,131.406l-5.967,0.608c0,0,0.02,0.222,0.039,0.444
			c0.029,0.221,0.058,0.441,0.058,0.441l5.954-0.707c0,0-0.024-0.195-0.05-0.392C95.893,131.604,95.876,131.406,95.876,131.406"/>
		<polyline clip-path="url(#SVGID_2_)" fill="#D4D2D2" points="90.345,117.816 90.203,118.695 96.138,119.564 96.264,118.781 
			90.345,117.816 		"/>
		<polyline clip-path="url(#SVGID_2_)" fill="#D4D2D2" points="94.423,104.215 94.077,105.034 99.584,107.406 99.892,106.675 
			94.423,104.215 		"/>
		<polyline clip-path="url(#SVGID_2_)" fill="#D4D2D2" points="101.893,92.139 101.328,92.828 106.04,96.538 106.541,95.926 
			101.893,92.139 		"/>
		<polyline clip-path="url(#SVGID_2_)" fill="#D4D2D2" points="112.227,82.392 111.51,82.924 115.096,87.732 115.73,87.26 
			112.227,82.392 		"/>
		<polyline clip-path="url(#SVGID_2_)" fill="#D4D2D2" points="124.199,75.869 123.509,76.154 125.859,81.675 126.326,81.475 
			124.199,75.869 		"/>
		<path clip-path="url(#SVGID_2_)" fill="#D4D2D2" d="M138.554,72.398c0,0-0.222,0.02-0.444,0.039
			c-0.221,0.027-0.441,0.057-0.441,0.057l0.707,5.955c0,0,0.195-0.025,0.392-0.051c0.198-0.016,0.396-0.033,0.396-0.033
			L138.554,72.398"/>
		<polyline clip-path="url(#SVGID_2_)" fill="#D4D2D2" points="151.873,72.691 151.004,78.627 151.786,78.752 152.752,72.832 
			151.873,72.691 		"/>
		<polyline clip-path="url(#SVGID_2_)" fill="#D4D2D2" points="165.533,76.564 163.163,82.074 163.894,82.381 166.354,76.912 
			165.533,76.564 		"/>
		<polyline clip-path="url(#SVGID_2_)" fill="#D4D2D2" points="177.74,83.816 174.03,88.528 174.643,89.03 178.43,84.38 
			177.74,83.816 		"/>
	</g>
</g>
</svg>
