<?xml version="1.0" encoding="utf-8"?>
<!-- Generator: Adobe Illustrator 16.0.0, SVG Export Plug-In . SVG Version: 6.00 Build 0)  -->
<!DOCTYPE svg PUBLIC "-//W3C//DTD SVG 1.1//EN" "http://www.w3.org/Graphics/SVG/1.1/DTD/svg11.dtd">
<svg version="1.1" id="Layer_1" xmlns="http://www.w3.org/2000/svg" xmlns:xlink="http://www.w3.org/1999/xlink" x="0px" y="0px"
	 width="179px" height="173.332px" viewBox="0 0 179 173.332" enable-background="new 0 0 179 173.332" xml:space="preserve">
<g>
	<g>
		<defs>
			<polyline id="SVGID_1_" points="179,173.5 -51,173.5 -51,-12.5 179,-12.5 179,173.5 			"/>
		</defs>
		<clipPath id="SVGID_2_">
			<use xlink:href="#SVGID_1_"  overflow="visible"/>
		</clipPath>
		<path clip-path="url(#SVGID_2_)" fill="#D4D2D2" d="M179,173.251c-0.075,0.083-0.151,0.167-0.227,0.249H179V173.251
			 M124.833,47.221c-42.489,0-77.057,34.568-77.057,77.058c0,18.698,6.695,35.863,17.812,49.222h5.304
			c-11.869-12.995-19.116-30.277-19.116-49.222c0-1.289,0.034-2.57,0.1-3.843c-0.284-0.216-0.505-0.485-0.444-0.834
			c0.302-1.708-0.406-3.01-1.267-4.231c1.66-16.313,8.542-31.082,18.952-42.605c0.218,0.008,0.437,0.013,0.655,0.016
			c0.546,0.005,0.858,0.437,1.274,0.604c0.343,0.139,0.678,0.288,1.013,0.423c0.371-0.388,0.747-0.773,1.126-1.152
			c-0.081,0.001-0.161,0.002-0.241,0.004c-0.002,0-0.004,0-0.006,0c-0.175,0-0.499-0.202-0.5-0.317
			c-0.036-1.097-0.611-1.471-1.326-1.702c0.73-0.748,1.476-1.48,2.236-2.198c0.491,0.107,0.966,0.327,1.408,0.669
			c0.45,0.349,0.897,0.604,1.348,0.78c12.938-11.604,30.024-18.67,48.729-18.67c21.093,0,40.127,8.986,53.475,23.331
			c0.227-0.097,0.458-0.188,0.692-0.274v-4.754C165.071,55.743,145.927,47.221,124.833,47.221"/>
		<g clip-path="url(#SVGID_2_)">
			<defs>
				<path id="SVGID_3_" d="M199.89,123.058c0,41.453-33.604,75.058-75.057,75.058s-75.057-33.604-75.057-75.058
					s33.604-75.057,75.057-75.057S199.89,81.604,199.89,123.058"/>
			</defs>
			<clipPath id="SVGID_4_">
				<use xlink:href="#SVGID_3_"  overflow="visible"/>
			</clipPath>
			<path clip-path="url(#SVGID_4_)" fill="#D4D2D2" d="M86.668,70.718c-0.39,0-0.81,0.535-1.458,1.604
				c-0.712,1.171-1.468,1.939-2.619,1.939c-0.436,0-0.929-0.11-1.497-0.35c-0.892-0.376-1.899-0.584-2.882-0.584
				c-0.881,0-1.742,0.167-2.481,0.529c-0.615,0.302-1.172,0.418-1.695,0.418c-0.7,0-1.339-0.209-1.976-0.467
				c-0.335-0.136-0.67-0.285-1.013-0.423c-0.416-0.167-0.729-0.599-1.274-0.604c-0.218-0.002-0.437-0.008-0.655-0.016
				c-10.409,11.523-17.292,26.292-18.952,42.605c0.86,1.221,1.568,2.523,1.267,4.231c-0.061,0.349,0.161,0.618,0.444,0.834
				c0.074,0.056,0.152,0.109,0.23,0.158c1.248,0.795,2.388,1.973,3.749,2.332c2.93,0.774,5.839,1.396,8.68,2.611
				c1.613,0.691,2.713,1.454,3.188,2.894c0.53,1.584,1.426,2.339,3.021,2.412l0,0l0,0l0.172-0.211
				c-1.313-1.388-1.791-3.089-1.269-4.861c0.594-2.015-0.242-2.583-1.769-2.583c-0.141,0-0.288,0.005-0.44,0.014
				c-0.084,0.005-0.163,0.008-0.238,0.008c-0.942,0-1.124-0.421-0.697-1.351c0.204-0.445,0.381-0.911,0.511-1.384
				c0.22-0.809,1.084-1.789-0.196-2.346c-0.221-0.096-0.422-0.141-0.609-0.141c-0.662,0-1.129,0.555-1.527,1.289
				c-0.658,1.208-1.478,1.783-2.503,1.783c-0.526,0-1.105-0.151-1.745-0.445c-1.775-0.816-2.252-2.193-1.648-4.005
				c0.331-1.004,0.646-2.013,0.984-3.013c0.799-2.353,2.646-3.712,4.844-3.712c0.643,0,1.316,0.116,2.001,0.358
				c0.21,0.075,0.403,0.11,0.581,0.11c0.45,0,0.8-0.228,1.077-0.625c0.453-0.649,0.959-0.862,1.504-0.862
				c0.475,0,0.979,0.162,1.499,0.337c1.635,0.553,1.952,1.862,2.073,3.336c0.047,0.544,0.182,1.198,0.803,1.198
				c0.032,0,0.065-0.002,0.099-0.005c0.674-0.068,1.052-0.694,1.076-1.38c0.013-0.406-0.167-0.817-0.248-1.231
				c-0.411-2.054-0.015-3.655,2.036-4.779c1.392-0.767,3.032-1.458,3.888-2.836c2.19-3.533,5.83-5.384,8.821-7.982
				c0.576-0.501,1.292-0.806,2.079-0.806c0.158,0,0.319,0.012,0.481,0.038l0,0l0.214-0.202l-0.187,0.229
				c0.027,0.48,0.052,0.958,0.108,2.014c1.459-2.094,3.814-1.871,5.562-3.452c-0.582,0.008-1.081,0.016-1.505,0.016
				c-2.535,0-2.399-0.257-1.45-2.053c-1.165,0-2.233,0-3.799,0c1.946-1.395,3.813-1.657,5.642-1.657
				c0.473,0,0.943,0.018,1.411,0.038c0.087,0.004,0.173,0.006,0.258,0.006c1.661,0,2.941-0.719,4.099-1.789
				c0.81-0.749,1.095-1.459-0.264-2.054c-1.134-0.494-1.879-1.358-1.77-2.744c0.126-1.611,0.167-2.251-0.347-2.251
				c-0.331,0-0.89,0.265-1.803,0.706c-0.519,0.25-1,0.459-1.386,0.459c-0.502,0-0.841-0.355-0.886-1.44
				c-0.036-0.848-0.62-1.189-1.338-1.431c-0.418-0.14-0.845-0.206-1.265-0.206c-2.209,0-4.255,1.814-4.203,4.167
				c0.028,1.209-0.341,1.787-1.509,2.104c-1.001,0.271-2.043,0.676-2.26,1.947c-0.128,0.731-0.446,1.227-1.091,1.227
				c-0.151,0-0.321-0.027-0.511-0.085c-0.918-0.283-1.245-0.975-0.873-1.819c0.554-1.256-0.143-1.441-1.117-1.554
				c-0.628-0.071-1.272-0.163-1.853-0.391c-1.129-0.438-2.27-0.987-2.54-2.314c-0.263-1.294,0.914-1.787,1.66-2.476
				c0.356-0.333,0.844-0.516,1.226-0.827c1.748-1.445,4.93-0.484,5.782-3.44c0.01-0.033,0.125-0.055,0.236-0.055
				c0.057,0,0.114,0.006,0.155,0.019c0.265,0.081,0.517,0.116,0.76,0.116c1.502,0,2.641-1.337,4.127-1.458
				c0.576-0.047,1.403-0.552,1.079-1.276c-0.142-0.317-0.309-0.429-0.485-0.429c-0.353,0-0.744,0.446-1.043,0.589
				c-0.614,0.296-1.186,0.537-1.708,0.537c-0.6,0-1.133-0.319-1.588-1.239C87.408,71.239,87.053,70.718,86.668,70.718"/>
			<path clip-path="url(#SVGID_4_)" fill="#D4D2D2" d="M79.717,127.632c-0.362,0-0.968,0.417-2.179,1.286
				c-0.735,0.527-1.288,1.301-1.943,1.943c-0.515,0.502-0.772,1.198-0.37,1.714c0.852,1.084,0.221,1.899-0.147,2.887
				c-0.911,2.454-3.967,4.123-2.729,7.363c-1.47,1.483-0.273,2.441,0.597,3.583c0.719,0.94,1.327,2.023,1.728,3.139
				c1.252,3.51,4.038,5.544,7.018,7.31c1.346,0.798,1.882,1.68,1.808,3.186c-0.228,4.497,0.063,8.983,0.435,13.458h11.946
				c0-0.045,0.002-0.093,0.007-0.144c0.242,0.006,0.492,0.067,0.744,0.144h2.206c0.048-0.042,0.096-0.089,0.143-0.142
				c2.048-2.284,3.483-5.08,3.793-7.991c0.182-1.667,0.718-2.164,1.88-2.298c3.503-0.397,4.882-2.522,5.25-5.767
				c0.394-3.471,0.718-6.946,3.254-9.793c0.946-1.064,0.698-2.307-0.85-3.292c-2.142-1.358-4.348-2.227-6.853-2.352
				c-0.609-0.03-1.069-0.264-1.511-0.639c-1.217-1.036-2.621-1.491-4.165-1.491c-0.171,0-0.344,0.006-0.519,0.017
				c-0.105,0.049-0.21,0.096-0.316,0.142l0,0l0,0c0.056-0.095,0.116-0.189,0.171-0.284l0,0c0.921-2.61-0.239-4.809-2.951-5.334
				c-0.986-0.192-1.64-0.708-2.323-1.331c-1.911-1.745-4.2-2.98-6.572-3.82c-1.234-0.438-2.768-0.2-4.004-0.994
				c-0.297-0.191-0.546-0.277-0.757-0.277c-0.455,0-0.737,0.399-0.958,1.004c-0.157,0.434-0.107,1.024-0.723,1.191
				C80.254,128.472,80.23,127.632,79.717,127.632"/>
			<path clip-path="url(#SVGID_4_)" fill="#D4D2D2" d="M165.096,71.619c-2.576,0-5.07,0.725-7.457,2.933
				c-1.705,1.574-2.842,3.975-5.447,4.606c-0.512,0.124-0.496,1.104-0.425,1.752c0.038,0.339,0.15,0.545,0.51,0.545
				c0.05,0,0.105-0.004,0.166-0.012c0.203-0.028,0.397-0.042,0.585-0.042c1.575,0,2.629,0.955,3.447,2.324
				c0.319,0.532,0.751,0.865,1.268,0.865c0.22,0,0.455-0.06,0.702-0.191c1.515-0.803,2.629-1.995,2.224-3.825
				c-0.496-2.231,0.642-3.284,2.444-4.006c0.236-0.096,0.491-0.276,0.741-0.276c0.138,0,0.273,0.054,0.405,0.207
				c0.319,0.37,0.121,0.776-0.04,1.181c-0.786,1.94-0.805,2.525,0.457,2.525c0.315,0,0.711-0.037,1.195-0.098
				c0.259-0.031,0.561-0.108,0.824-0.108c0.347,0,0.626,0.134,0.648,0.686c0.032,0.779-0.714,0.917-1.396,0.931
				c-0.004,0-0.008,0-0.012,0c-0.109,0-0.218-0.038-0.327-0.075s-0.218-0.075-0.33-0.075c-0.109,0-0.219,0.036-0.333,0.144
				c-0.192,0.646,0.689,2.013-0.534,2.013c-0.185,0-0.417-0.031-0.708-0.101c-0.009-0.002-0.02-0.003-0.031-0.003
				c-0.146,0-0.424,0.189-0.44,0.304c-0.256,2.056-1.634,2.521-2.921,2.521c-0.743,0-1.456-0.155-1.904-0.249
				c-0.772-0.162-1.503-0.239-2.2-0.239c-2.69,0-4.858,1.152-6.854,3.042c-1.425,1.351-3.027,1.975-4.849,2.087
				c-0.3,0.61,0.978,0.96,0.432,1.094c-2.438,0.604-0.221,1.279,0.013,1.564c0.981,1.184,0.905,2.143-0.347,2.986
				c-0.273,0.183-0.538,0.251-0.798,0.251c-0.545,0-1.069-0.302-1.603-0.496c-0.575-0.208-1.039-0.318-1.414-0.318
				c-0.89,0-1.274,0.62-1.438,2.012c-0.09,0.767-0.237,1.526-0.323,2.294c-0.082,0.716-0.052,1.418,0.536,1.96
				c0.571,0.526,1.479,0.765,2.453,0.765c1.901,0,4.05-0.912,4.415-2.379c0.514-2.069,2.335-2.697,3.56-3.919
				c0.266-0.265,0.682-0.288,1.141-0.288c0.048,0,0.097,0,0.146,0c0.049,0,0.098,0,0.148,0c0.702,0,1.447-0.051,1.881-0.875
				c0.013-0.025,0.083-0.038,0.176-0.038c0.204,0,0.52,0.059,0.602,0.171c1.538,2.066,4.581,2.272,5.691,4.81
				c1.478-1.307,0.91-2.171-0.417-2.835c-1.098-0.549-2.071-1.215-2.666-2.318c-0.231-0.431-0.562-0.968,0.344-1.025
				c0.003,0,0.006,0,0.009,0c0.574,0,5.174,3.301,5.258,3.866c0.188,1.261,1.14,2.091,1.646,3.164
				c0.225,0.487,0.545,1.177,1.055,1.177c0.079,0,0.163-0.017,0.251-0.053c0.661-0.276,0.947-1.094,0.642-1.944
				c-0.455-1.263,0.172-1.332,0.834-1.332c0.041,0,0.082,0,0.123,0.001c0.041,0,0.082,0,0.122,0c0.273,0,0.53-0.012,0.695-0.118
				c0.187-0.119,0.339-0.17,0.464-0.17c0.438,0,0.535,0.628,0.535,1.163c0,2.209,1.459,2.89,3.307,3.048
				c0.504,0.042,1.01,0.055,1.518,0.055c0.338,0,0.677-0.005,1.016-0.011c0.34-0.005,0.68-0.011,1.02-0.011c0.015,0,0.03,0,0.044,0
				c0.58,0.001,1.155,0.02,1.422,0.667c0.585,1.417-1.247,4.754-2.787,4.754c-0.033,0-0.066-0.001-0.1-0.005
				c-2.906-0.284-5.947,0.174-8.701-1.213c-0.328-0.167-0.673-0.369-0.979-0.369c-0.243,0-0.459,0.128-0.621,0.505
				c-0.506,1.189-1.116,1.607-1.786,1.607c-0.704,0-1.475-0.462-2.262-0.979c-0.716-0.473-1.6-0.547-2.334-0.873
				c-1.286-0.574-3.23-0.985-2.525-3.138c0.4-1.223,0.193-1.485-0.388-1.485c-0.284,0-0.657,0.062-1.092,0.106
				c-2.934,0.285-5.734,1.375-8.714,1.375c-0.173,0-0.347-0.003-0.521-0.011c-0.115-0.005-0.229-0.007-0.341-0.007
				c-2.766,0-4.881,1.508-6.073,3.853c-0.69,1.354-1.506,2.425-2.521,3.464c-0.884,0.906-1.849,1.809-2.447,2.895
				c-0.817,1.495-2.133,2.934-1.646,4.848c0.369,1.446,0.198,2.802-0.321,4.14c-0.516,1.325-0.711,2.911,0.208,3.812
				c1.557,1.517,2.409,3.46,3.753,5.073c1.127,1.351,2.491,2.66,4.201,2.66c0.264,0,0.536-0.031,0.816-0.098
				c1.766-0.422,3.613-0.515,5.315-1.186c1.014-0.399,2.007-0.705,2.953-0.705c1.131,0,2.193,0.438,3.138,1.679
				c0.172,0.223,0.625,0.253,0.958,0.327c1.967,0.451,2.971,1.797,2.272,3.671c-0.624,1.678,0.102,2.544,0.925,3.881
				c2.184,3.545,3.993,7.314,1.516,11.591c-0.692,1.197-0.662,2.489,0.076,3.823c1.262,2.274,2.458,4.583,2.438,7.331
				c-0.006,0.794,0.304,1.747,0.806,2.355c1.169,1.417,1.792,2.998,2.089,4.769c0.072,0.422,0.239,0.865,0.509,1.147h2.834
				c1.388-0.234,2.745-0.599,3.939-1.466c3.239-2.345,5.011-5.978,7.686-8.82c0.154-0.163,0.201-0.559,0.129-0.791
				c-0.753-2.365,0.142-3.955,1.605-5.268v-37.174c-1.499-2.73-2.423-5.756-3.64-8.631l-0.169-0.26l0.258,0.171
				c0.138-0.022,0.268-0.033,0.391-0.033c0.792,0,1.322,0.44,1.901,1.125c0.487,0.574,0.893,1.195,1.259,1.839V74.277
				c-0.234,0.086-0.465,0.177-0.692,0.274c-1.357,0.581-2.579,1.372-3.691,2.381c-0.375,0.341-0.71,0.471-1.019,0.471
				c-0.711,0-1.285-0.691-1.894-1.107c-0.379-0.257-1.079-0.657-0.725-1.102c0.278-0.351,0.625-0.468,0.999-0.468
				c0.431,0,0.896,0.156,1.329,0.288l0.198,0.075c0.052,0.005,0.103,0.007,0.152,0.007c0.488,0,0.84-0.23,0.945-0.748
				c0.112-0.538-0.316-0.736-0.714-0.881c-0.855-0.314-1.71-0.661-2.592-0.878C169.187,72.065,167.116,71.619,165.096,71.619"/>
			<path clip-path="url(#SVGID_4_)" fill="#D4D2D2" d="M107.872,61.343c-0.461,0-0.915,0.034-1.358,0.115
				c-3.493,0.641-6.772,2.25-10.404,2.466c-0.773,0.046-1.633,1.123-0.776,1.582c1.102,0.593,2.292,1.527,3.599,1.527
				c0.404,0,0.819-0.089,1.246-0.305c3.349-1.697,7.016-2.215,10.576-3.129c0.248-0.064,0.561-0.195,0.827-0.195
				c0.252,0,0.463,0.118,0.535,0.523c0.114,0.639-0.558,1.031-1.092,1.08c-0.46,0.044-0.924,0.057-1.402,0.057
				c-0.674,0-1.378-0.025-2.147-0.025c0.387,0.958,0.93,0.874,1.397,0.934c2.938,0.377,4.601,2.017,5.253,4.926
				c0.335,1.485,0.239,2.356-1.447,2.356c-0.02,0-0.041,0-0.062,0c-0.016,0-0.032,0-0.048,0c-0.879,0-1.302,0.372-1.095,1.273
				c0.359,1.567,0.604,3.17,1.77,4.441c0.76,0.83,1.318,1.251,1.85,1.251c0.558,0,1.087-0.465,1.789-1.41
				c0.749-1.006,1.095-2.506,2.353-2.908c3.627-1.152,6.851-3.554,10.853-3.554c0.004,0,0.008,0,0.012,0
				c1.494,0,2.226-0.795,2.112-2.267c-0.105-1.405,0.462-2.017,1.881-2.195c0.893-0.116,2.132-0.157,2.325-1.433
				c0.174-1.132,0.916-1.687,1.767-2.217c0.415-0.259,0.926-0.476,0.748-1.106c-0.14-0.488-0.592-0.525-1.018-0.593
				c-0.587-0.092-1.204-0.37-1.764-0.37c-0.097,0-0.192,0.008-0.286,0.027c-1.433,0.295-2.872,0.36-4.311,0.36
				c-0.565,0-1.13-0.01-1.696-0.02c-0.565-0.01-1.13-0.02-1.695-0.02c-0.666,0-1.332,0.014-1.996,0.058
				c-0.091,0.006-0.181,0.009-0.27,0.009c-0.721,0-1.413-0.188-2.097-0.376c-0.685-0.188-1.364-0.375-2.059-0.375
				c-0.181,0-0.362,0.013-0.545,0.041c-1.474,0.23-2.938,0.339-4.403,0.339c-1.542,0-3.083-0.12-4.631-0.347
				C110.751,61.656,109.281,61.343,107.872,61.343"/>
			<path clip-path="url(#SVGID_4_)" fill="#D4D2D2" d="M93.247,69.092c-0.589,0-0.945,0.519-1.2,1.003
				c-0.207,0.398-0.112,0.839,0.154,1.195c0.162,0.218,0.312,0.296,0.459,0.296c0.261,0,0.508-0.248,0.781-0.392
				c0.257-0.134,0.509-0.184,0.759-0.184c0.711,0,1.399,0.405,2.104,0.412c1.706,0.013,2.034,1.253,2.409,2.472
				c0.41,1.317-0.597,1.692-1.478,2.164c-0.442,0.238-1.321,0.545-0.646,1.141c1.051,0.928,2.384,1.592,3.808,1.669
				c0.041,0.002,0.08,0.003,0.116,0.003c1.132,0,0.33-1.014,0.479-1.544c0.043-0.146,0.285-0.342,0.433-0.342
				c0.003,0,0.006,0,0.009,0c0.06,0.002,0.116,0.004,0.17,0.004c1.569,0,0.415-1.097,0.518-1.683l-0.161-0.233l0.227,0.17
				c0.53-0.081,1.166,0.048,1.248-0.794c0.065-0.674-1.691-3.887-2.257-4.208c-2.483-1.41-5.223-1.008-7.88-1.147
				C93.281,69.093,93.264,69.092,93.247,69.092"/>
			<path clip-path="url(#SVGID_4_)" fill="#D4D2D2" d="M73.348,68.442c-0.761,0.718-1.506,1.45-2.236,2.198
				c0.715,0.231,1.29,0.605,1.326,1.702c0.002,0.116,0.325,0.317,0.5,0.317c0.002,0,0.004,0,0.006,0
				c0.081-0.002,0.161-0.003,0.241-0.004c0.104-0.001,0.208-0.002,0.312-0.002c0.519,0,1.038,0.015,1.558,0.029
				s1.039,0.029,1.557,0.029c1.329,0,2.649-0.096,3.939-0.535c1.044-0.354,0.875-1.408,0.701-2.181
				C81.167,69.62,81,69.5,80.802,69.5c-0.296,0-0.66,0.269-0.915,0.347c-0.727,0.224-1.42,0.356-2.096,0.356
				c-0.573,0-1.133-0.096-1.688-0.313c-0.45-0.176-0.898-0.431-1.348-0.78C74.314,68.769,73.838,68.549,73.348,68.442"/>
			<path clip-path="url(#SVGID_4_)" fill="#D4D2D2" d="M70.916,130.632L70.916,130.632l-0.172,0.211l0,0
				c0.172,0.265,0.4,0.399,0.686,0.399c0.062,0,0.128-0.006,0.196-0.02l0.036-0.035C71.546,130.824,71.239,130.715,70.916,130.632"
				/>
			<polyline clip-path="url(#SVGID_4_)" fill="#D4D2D2" points="71.662,131.188 71.662,131.188 71.629,131.221 71.835,131.417 
				71.662,131.188 			"/>
			<polyline clip-path="url(#SVGID_4_)" fill="#D4D2D2" points="92.6,94.552 92.386,94.754 92.413,94.781 92.6,94.552 			"/>
			<path clip-path="url(#SVGID_4_)" fill="#D4D2D2" d="M99.112,139.61c-0.055,0.095-0.115,0.189-0.171,0.284l0,0
				c0.106-0.046,0.211-0.093,0.316-0.142L99.112,139.61"/>
			<polyline clip-path="url(#SVGID_4_)" fill="#D4D2D2" points="175.191,111.091 175.191,111.091 175.36,111.351 175.449,111.262 
				175.191,111.091 			"/>
			<polyline clip-path="url(#SVGID_4_)" fill="#D4D2D2" points="101.961,75.073 101.961,75.073 102.122,75.307 102.188,75.243 
				101.961,75.073 			"/>
		</g>
	</g>
</g>
</svg>
