<?xml version="1.0" encoding="utf-8"?>
<!-- Generator: Adobe Illustrator 16.0.0, SVG Export Plug-In . SVG Version: 6.00 Build 0)  -->
<!DOCTYPE svg PUBLIC "-//W3C//DTD SVG 1.1//EN" "http://www.w3.org/Graphics/SVG/1.1/DTD/svg11.dtd">
<svg version="1.1" id="Layer_1" xmlns="http://www.w3.org/2000/svg" xmlns:xlink="http://www.w3.org/1999/xlink" x="0px" y="0px"
	 width="283.485px" height="213.404px" viewBox="0 0 283.485 213.404" enable-background="new 0 0 283.485 213.404"
	 xml:space="preserve">
<g>
	<defs>
		<polyline id="SVGID_1_" points="296.902,213.404 -16.098,213.404 -16.098,-24.596 296.902,-24.596 296.902,213.404 		"/>
	</defs>
	<clipPath id="SVGID_2_">
		<use xlink:href="#SVGID_1_"  overflow="visible"/>
	</clipPath>
	<polyline clip-path="url(#SVGID_2_)" fill="#1C3742" points="282.165,101.813 149.503,154.474 149.675,154.904 149.072,154.645 
		149.071,154.645 161.849,160.161 175.451,166.032 282.165,101.813 	"/>
	<polyline clip-path="url(#SVGID_2_)" fill="#092029" points="282.006,101.938 161.211,128.191 150.525,152.945 150.931,153.967 
		282.006,101.938 	"/>
	<path clip-path="url(#SVGID_2_)" fill="#1C3742" d="M150.732,154.997l-1.319,0.523l-10.505,24.335l20.189,33.549h14.821
		L150.732,154.997 M149.909,154.372L149.909,154.372l0.695,0.302v-0.002L149.909,154.372"/>
	<polyline clip-path="url(#SVGID_2_)" fill="#092029" points="150.7,154.714 150.7,154.714 151.057,154.868 150.802,154.97 
		173.998,213.404 187.182,213.404 176.882,166.017 163.419,160.205 150.738,154.73 150.7,154.714 	"/>
	<path clip-path="url(#SVGID_2_)" fill="#1C3742" d="M24.714,205.02l-3.064,0.666l-2.688,1.617L24.714,205.02 M149.908,154.373
		l-0.495,1.147l1.319-0.523l0.069-0.027l0.255-0.102l-0.356-0.153l-0.096-0.041L149.908,154.373 M124.875,143.565l-99.985,60.17
		l124.701-49.5L124.875,143.565"/>
	<polyline clip-path="url(#SVGID_2_)" fill="#092029" points="149.592,154.235 149.591,154.235 24.89,203.735 17.953,206.489 
		21.649,205.686 24.714,205.02 138.745,180.233 138.908,179.855 149.413,155.521 149.908,154.373 149.909,154.372 149.592,154.235 	
		"/>
	<path clip-path="url(#SVGID_2_)" fill="#1C3742" d="M100.818,27.728l49.707,125.218l10.711-24.813L100.818,27.728 M97.502,22.217
		l2.765,6.965l-0.807-3.711L97.502,22.217"/>
	<polyline clip-path="url(#SVGID_2_)" fill="#092029" points="98.9,22.896 99.46,25.471 100.267,29.182 125.156,143.687 
		149.592,154.235 149.909,154.372 150.604,154.672 150.738,154.73 151.336,154.988 151.166,154.561 150.931,153.967 
		150.525,152.945 150.525,152.945 100.818,27.728 98.9,22.896 	"/>
	<path opacity="0.102" clip-path="url(#SVGID_2_)" fill="#E6E6E5" d="M166.139,121.823l-0.125,0.29L166.139,121.823 M208.421,23.876
		l-0.141,0.325L208.421,23.876"/>
	<polyline clip-path="url(#SVGID_2_)" fill="#092029" points="208.558,23.936 208.28,24.201 206.592,25.82 165.723,120.786 
		166.139,121.823 166.643,123.078 169.253,122.178 210.114,27.521 208.636,23.969 208.558,23.936 	"/>
	<polyline opacity="0.102" clip-path="url(#SVGID_2_)" fill="#E6E6E5" points="136.037,186.506 124.426,213.404 136.037,186.506 	
		"/>
	<path clip-path="url(#SVGID_2_)" fill="#092029" d="M137.373,187.122l-1.913,1.118l-10.915,25.164h2.06l10.753-24.909
		L137.373,187.122 M137.374,187.083l-0.001,0.039l0.039-0.022L137.374,187.083"/>
	<polyline opacity="0.102" clip-path="url(#SVGID_2_)" fill="#E6E6E5" points="281.951,211.373 281.951,211.373 283.034,211.841 
		281.951,211.373 	"/>
	<polyline clip-path="url(#SVGID_2_)" fill="#092029" points="186.32,168.059 184.016,168.999 184.897,171.654 279.556,212.518 
		281.951,211.373 282.107,211.299 280.917,208.753 186.32,168.059 	"/>
	<polyline opacity="0.102" clip-path="url(#SVGID_2_)" fill="#E6E6E5" points="21.374,98.886 22.467,99.357 21.374,98.886 	"/>
	<polyline clip-path="url(#SVGID_2_)" fill="#092029" points="24.896,97.139 22.318,98.715 22.467,99.357 23.026,101.777 
		117.684,142.64 120.436,140.958 119.443,137.953 24.896,97.139 	"/>
</g>
</svg>
