<?xml version="1.0" encoding="utf-8"?>
<!-- Generator: Adobe Illustrator 16.0.0, SVG Export Plug-In . SVG Version: 6.00 Build 0)  -->
<!DOCTYPE svg PUBLIC "-//W3C//DTD SVG 1.1//EN" "http://www.w3.org/Graphics/SVG/1.1/DTD/svg11.dtd">
<svg version="1.1" id="Layer_1" xmlns="http://www.w3.org/2000/svg" xmlns:xlink="http://www.w3.org/1999/xlink" x="0px" y="0px"
	 width="179px" height="173.332px" viewBox="0 0 179 173.332" enable-background="new 0 0 179 173.332" xml:space="preserve">
<g>
	<g>
		<defs>
			<polyline id="SVGID_1_" points="-95.658,165.139 -325.658,165.139 -325.658,-20.861 -95.658,-20.861 -95.658,165.139 			"/>
		</defs>
		<clipPath id="SVGID_2_">
			<use xlink:href="#SVGID_1_"  overflow="visible"/>
		</clipPath>
		<path clip-path="url(#SVGID_2_)" fill="#D4D2D2" d="M-213.708,154.827l-11.814,1.027c0.04,0.488,0.082,0.979,0.128,1.467
			l11.811-1.028C-213.628,155.804-213.669,155.317-213.708,154.827"/>
		<path clip-path="url(#SVGID_2_)" fill="#D4D2D2" d="M-225.518,138.681c-0.04,0.492-0.075,0.977-0.108,1.468l11.851,0.858
			c0.033-0.492,0.07-0.978,0.11-1.468L-225.518,138.681"/>
		<path clip-path="url(#SVGID_2_)" fill="#D4D2D2" d="M-222.789,121.713c-0.116,0.478-0.229,0.952-0.339,1.432l11.61,2.761
			c0.112-0.479,0.227-0.954,0.346-1.43L-222.789,121.713"/>
		<path clip-path="url(#SVGID_2_)" fill="#D4D2D2" d="M-217.385,105.387c-0.191,0.451-0.379,0.906-0.564,1.36l11.099,4.638
			c0.188-0.455,0.378-0.904,0.574-1.356L-217.385,105.387"/>
		<path clip-path="url(#SVGID_2_)" fill="#D4D2D2" d="M-209.426,90.143c-0.261,0.414-0.52,0.833-0.775,1.251l10.299,6.42
			c0.258-0.417,0.52-0.833,0.784-1.246L-209.426,90.143"/>
		<path clip-path="url(#SVGID_2_)" fill="#D4D2D2" d="M-199.126,76.371c-0.323,0.367-0.647,0.74-0.965,1.111l9.219,8.054
			c0.322-0.371,0.645-0.738,0.972-1.104L-199.126,76.371"/>
		<path clip-path="url(#SVGID_2_)" fill="#D4D2D2" d="M-186.763,64.408c-0.378,0.312-0.755,0.626-1.129,0.944l7.885,9.504
			c0.377-0.315,0.754-0.626,1.136-0.936L-186.763,64.408"/>
		<path clip-path="url(#SVGID_2_)" fill="#D4D2D2" d="M-172.65,54.547c-0.423,0.249-0.845,0.499-1.265,0.753l6.325,10.75
			c0.422-0.251,0.845-0.498,1.271-0.743L-172.65,54.547"/>
		<path clip-path="url(#SVGID_2_)" fill="#D4D2D2" d="M-157.129,47.044c-0.457,0.177-0.914,0.358-1.368,0.542l4.563,11.766
			c0.456-0.18,0.915-0.356,1.374-0.529L-157.129,47.044"/>
		<path clip-path="url(#SVGID_2_)" fill="#D4D2D2" d="M-140.584,42.118c-0.479,0.101-0.961,0.207-1.438,0.314l2.637,12.51
			c0.479-0.104,0.959-0.204,1.44-0.3L-140.584,42.118"/>
		<path clip-path="url(#SVGID_2_)" fill="#D4D2D2" d="M-123.454,39.925c-0.492,0.023-0.979,0.049-1.47,0.078l0.605,12.933
			c0.49-0.025,0.979-0.047,1.471-0.065L-123.454,39.925"/>
		<path clip-path="url(#SVGID_2_)" fill="#D4D2D2" d="M-107.651,40.363l-1.466,12.993c0.486,0.052,0.979,0.109,1.463,0.169
			l1.467-13.003C-106.674,40.466-107.166,40.413-107.651,40.363"/>
		<path clip-path="url(#SVGID_2_)" fill="#D4D2D2" d="M-118.53,35.396C-173.731,35.4-221.895,76.41-229.31,132.59
			c-0.118,0.892-0.224,1.778-0.32,2.668l0.103,0.014l-0.065,0.496l-0.065,0.496l-0.075-0.01c-0.974,9.838-0.63,19.526,0.894,28.885
			h4.477c-0.438-2.58-0.783-5.189-1.031-7.818c-0.046-0.487-0.088-0.979-0.128-1.467c-0.415-5.161-0.457-10.408-0.104-15.705
			c0.033-0.491,0.068-0.976,0.108-1.468c0.147-1.832,0.342-3.671,0.585-5.514c0.449-3.401,1.053-6.743,1.805-10.022
			c0.11-0.48,0.223-0.955,0.339-1.432c1.258-5.16,2.881-10.157,4.839-14.966c0.185-0.455,0.374-0.909,0.564-1.36
			c2.061-4.869,4.468-9.545,7.184-13.993c0.255-0.418,0.515-0.837,0.775-1.251c2.81-4.463,5.931-8.689,9.335-12.662
			c0.318-0.371,0.642-0.744,0.965-1.111c3.479-3.949,7.232-7.628,11.234-11.019c0.374-0.317,0.751-0.632,1.129-0.944
			c4.053-3.34,8.35-6.388,12.848-9.108c0.42-0.254,0.841-0.504,1.265-0.753c4.53-2.656,9.257-4.984,14.153-6.962
			c0.455-0.183,0.911-0.364,1.368-0.542c4.888-1.896,9.936-3.443,15.106-4.612c0.478-0.108,0.959-0.213,1.438-0.314
			c5.115-1.083,10.345-1.795,15.661-2.114c0.49-0.029,0.978-0.055,1.47-0.078c1.634-0.075,3.279-0.113,4.927-0.113
			c3.599,0,7.225,0.181,10.876,0.551c0.485,0.049,0.977,0.103,1.464,0.159c0.597,0.069,1.193,0.143,1.792,0.222
			c2.957,0.39,5.872,0.898,8.737,1.519v-4.514c-2.579-0.535-5.198-0.983-7.848-1.341l-0.066,0.502l-0.496-0.065l-0.496-0.065
			l0.066-0.501C-109.214,35.684-113.893,35.395-118.53,35.396"/>
		<path clip-path="url(#SVGID_2_)" fill="#D4D2D2" d="M-119.344,52.807c-1.172,0-2.341,0.021-3.503,0.064
			c-0.492,0.018-0.98,0.04-1.471,0.065c-4.636,0.242-9.19,0.818-13.628,1.707c-0.481,0.096-0.961,0.196-1.44,0.3
			c-4.518,0.978-8.92,2.28-13.174,3.88c-0.459,0.173-0.918,0.349-1.374,0.529c-4.29,1.69-8.426,3.684-12.385,5.957
			c-0.426,0.245-0.849,0.492-1.271,0.743c-3.954,2.352-7.725,4.986-11.281,7.87c-0.382,0.31-0.759,0.621-1.136,0.936
			c-3.523,2.949-6.831,6.15-9.893,9.574c-0.328,0.366-0.65,0.733-0.972,1.104c-3.005,3.467-5.764,7.155-8.247,11.034
			c-0.264,0.413-0.526,0.829-0.784,1.246c-2.409,3.894-4.542,7.975-6.375,12.215c-0.195,0.452-0.385,0.901-0.574,1.356
			c-1.745,4.219-3.194,8.593-4.32,13.091c-0.12,0.477-0.234,0.951-0.346,1.43c-1.036,4.432-1.76,8.988-2.146,13.633
			c-0.041,0.49-0.077,0.976-0.11,1.468c-0.144,2.13-0.217,4.28-0.217,6.446c0,2.481,0.096,4.938,0.284,7.373
			c0.038,0.49,0.08,0.978,0.125,1.466c0.278,2.99,0.697,5.943,1.248,8.847h4.5c-1.142-5.722-1.74-11.634-1.74-17.686
			c0-49.754,40.477-90.23,90.23-90.23c8.193,0,16.136,1.098,23.687,3.154v-4.569c-3.909-1.011-7.91-1.777-11.996-2.282
			c-0.484-0.06-0.977-0.117-1.463-0.169C-112.478,52.993-115.888,52.807-119.344,52.807"/>
		<path clip-path="url(#SVGID_2_)" fill="#D4D2D2" d="M-118.768,99.017c-25.83,0-47.861,19.342-51.246,44.99
			c-0.965,7.309-0.347,14.468,1.587,21.132h2.086c-1.989-6.563-2.645-13.64-1.69-20.87c3.254-24.658,24.434-43.252,49.264-43.252
			c2.185,0,4.397,0.146,6.578,0.434c5.943,0.785,11.507,2.594,16.532,5.227v-2.246c-4.982-2.482-10.451-4.195-16.271-4.964
			C-114.196,99.168-116.497,99.017-118.768,99.017"/>
		<path clip-path="url(#SVGID_2_)" fill="#D4D2D2" d="M-118.762,102.912c-23.886,0-44.26,17.886-47.392,41.604
			c-0.945,7.156-0.249,14.157,1.795,20.624h0.525c-2.06-6.44-2.767-13.421-1.824-20.558c3.099-23.471,23.26-41.17,46.896-41.17
			c2.077,0,4.184,0.139,6.258,0.413c6.011,0.793,11.702,2.686,16.847,5.547V108.8c-5.135-2.816-10.801-4.683-16.781-5.472
			C-114.535,103.052-116.663,102.912-118.762,102.912"/>
		<line clip-path="url(#SVGID_2_)" fill="#D4D2D2" x1="-229.593" y1="135.768" x2="-229.593" y2="135.768"/>
		<polyline clip-path="url(#SVGID_2_)" fill="#D4D2D2" points="-274.14,129.381 -274.271,130.374 -229.733,136.254 
			-229.659,136.264 -229.593,135.768 -229.528,135.272 -229.63,135.258 -274.14,129.381 		"/>
		<polyline clip-path="url(#SVGID_2_)" fill="#D4D2D2" points="-98.177,-7.769 -98.177,-7.769 -98.177,-7.769 -98.177,-7.769 		"/>
		<polyline clip-path="url(#SVGID_2_)" fill="#D4D2D2" points="-98.673,-7.834 -104.498,36.278 -104.564,36.779 -104.068,36.844 
			-103.572,36.91 -103.505,36.407 -97.681,-7.704 -98.177,-7.769 -98.673,-7.834 		"/>
	</g>
</g>
<g>
	<g>
		<defs>
			<polyline id="SVGID_3_" points="179,173.5 -51,173.5 -51,-12.5 179,-12.5 179,173.5 			"/>
		</defs>
		<clipPath id="SVGID_4_">
			<use xlink:href="#SVGID_3_"  overflow="visible"/>
		</clipPath>
		<path clip-path="url(#SVGID_4_)" fill="#D4D2D2" d="M179,86.487l-26.694,18.536c0.131,0.171,0.26,0.348,0.384,0.527
			c0.834,1.202,1.452,2.489,1.862,3.816c0.777,2.339,0.926,4.809,0.486,7.169l8.322,1.501L179,102.847V86.487"/>
		<path clip-path="url(#SVGID_4_)" fill="#EBEAE9" d="M179,73.347l-33.968,16.121l0.293,0.302l-1.794,9.95
			c0.76,0.144,1.509,0.348,2.238,0.611c2.52,0.855,4.813,2.44,6.538,4.692L179,86.487V73.347"/>
		<path clip-path="url(#SVGID_4_)" fill="#D4D2D2" d="M118.222,109.896L52.734,173.5h3.348l74.246-51.556
			c-0.144-0.187-0.284-0.377-0.42-0.573c-2.064-2.972-2.806-6.469-2.35-9.792L118.222,109.896"/>
		<path clip-path="url(#SVGID_4_)" fill="#EBEAE9" d="M130.327,121.944L56.082,173.5h5.944l75.525-35.844l-0.727-0.748l1.775-9.844
			C135.413,126.433,132.445,124.688,130.327,121.944"/>
		<path clip-path="url(#SVGID_4_)" fill="#D4D2D2" d="M72.469,14.757l60.475,87.091c2.441-1.607,5.191-2.378,7.911-2.378
			c0.899,0,1.795,0.084,2.676,0.25l1.794-9.95l-0.293-0.302L72.469,14.757"/>
		<path clip-path="url(#SVGID_4_)" fill="#EBEAE9" d="M72.741,15.305l44.836,94.475l9.98,1.8c0.483-3.525,2.314-6.854,5.342-9.155
			l-0.258-0.372c0.077-0.053,0.153-0.105,0.23-0.157L72.741,15.305"/>
		<path clip-path="url(#SVGID_4_)" fill="#D4D2D2" d="M148.249,125.462c-2.17,1.26-4.565,1.868-6.938,1.868
			c-0.911,0-1.82-0.089-2.711-0.266l-1.775,9.844l0.727,0.748l34.814,35.844H179v-3.753L148.249,125.462"/>
		<path clip-path="url(#SVGID_4_)" fill="#EBEAE9" d="M155.039,116.535c-0.668,3.592-2.699,6.936-5.955,9.197l-0.379-0.546
			c-0.151,0.095-0.303,0.188-0.456,0.276L179,169.747v-19.854l-15.07-31.754l-0.568-0.103L155.039,116.535"/>
		<path clip-path="url(#SVGID_4_)" fill="#EBEAE9" d="M132.899,102.424c-3.027,2.3-4.858,5.63-5.342,9.155v0
			c-0.456,3.323,0.286,6.819,2.35,9.792c0.136,0.196,0.276,0.387,0.42,0.573c2.118,2.743,5.086,4.488,8.272,5.12
			c0.891,0.177,1.8,0.266,2.711,0.266c2.373,0,4.769-0.608,6.938-1.868c0.153-0.089,0.305-0.181,0.456-0.276l-1.796-2.586
			c4.107-2.854,5.994-9.953,2.661-14.752c-2.037-2.934-5.561-4.341-8.929-4.341c-2.144,0-4.226,0.57-5.823,1.679L132.899,102.424
			 M145.769,100.331c2.716,0.982,5.162,2.789,6.934,5.341c0.81,1.167,1.425,2.411,1.851,3.694c-0.41-1.327-1.028-2.614-1.862-3.816
			c-0.125-0.179-0.253-0.355-0.384-0.527C150.582,102.771,148.289,101.187,145.769,100.331"/>
		<path clip-path="url(#SVGID_4_)" fill="#D4D2D2" d="M140.855,99.47c-2.72,0-5.47,0.771-7.911,2.378
			c-0.024,0.016-0.049,0.032-0.073,0.048c-0.077,0.051-0.154,0.104-0.23,0.157l0.258,0.372l1.918,2.761
			c1.597-1.109,3.679-1.679,5.823-1.679c3.369,0,6.892,1.407,8.929,4.341c3.333,4.799,1.446,11.898-2.661,14.752l1.796,2.586
			l0.379,0.546c3.256-2.261,5.287-5.605,5.955-9.197c0.439-2.361,0.291-4.83-0.486-7.169c-0.426-1.283-1.041-2.527-1.851-3.694
			c-1.771-2.552-4.217-4.358-6.934-5.341c-0.729-0.264-1.478-0.468-2.238-0.611C142.65,99.554,141.754,99.469,140.855,99.47"/>
	</g>
</g>
</svg>
