<?xml version="1.0" encoding="utf-8"?>
<!-- Generator: Adobe Illustrator 16.0.0, SVG Export Plug-In . SVG Version: 6.00 Build 0)  -->
<!DOCTYPE svg PUBLIC "-//W3C//DTD SVG 1.1//EN" "http://www.w3.org/Graphics/SVG/1.1/DTD/svg11.dtd">
<svg version="1.1" id="Layer_1" xmlns="http://www.w3.org/2000/svg" xmlns:xlink="http://www.w3.org/1999/xlink" x="0px" y="0px"
	 width="179px" height="173.332px" viewBox="0 0 179 173.332" enable-background="new 0 0 179 173.332" xml:space="preserve">
<g>
	<g>
		<defs>
			<polyline id="SVGID_1_" points="179,173.332 -51,173.332 -51,-12.668 179,-12.668 179,173.332 			"/>
		</defs>
		<clipPath id="SVGID_2_">
			<use xlink:href="#SVGID_1_"  overflow="visible"/>
		</clipPath>
		<path clip-path="url(#SVGID_2_)" fill="#D4D2D2" d="M60.95,163.02l-11.814,1.027c0.04,0.488,0.082,0.979,0.128,1.467l11.811-1.028
			C61.03,163.997,60.988,163.51,60.95,163.02"/>
		<path clip-path="url(#SVGID_2_)" fill="#D4D2D2" d="M49.14,146.874c-0.04,0.492-0.075,0.977-0.108,1.468l11.851,0.858
			c0.033-0.492,0.07-0.978,0.11-1.468L49.14,146.874"/>
		<path clip-path="url(#SVGID_2_)" fill="#D4D2D2" d="M51.869,129.906c-0.116,0.478-0.229,0.952-0.339,1.432l11.61,2.761
			c0.112-0.479,0.227-0.954,0.346-1.43L51.869,129.906"/>
		<path clip-path="url(#SVGID_2_)" fill="#D4D2D2" d="M57.272,113.58c-0.191,0.451-0.379,0.906-0.564,1.36l11.099,4.638
			c0.188-0.455,0.378-0.904,0.574-1.356L57.272,113.58"/>
		<path clip-path="url(#SVGID_2_)" fill="#D4D2D2" d="M65.231,98.336c-0.261,0.414-0.52,0.833-0.775,1.251l10.299,6.42
			c0.258-0.417,0.52-0.833,0.784-1.246L65.231,98.336"/>
		<path clip-path="url(#SVGID_2_)" fill="#D4D2D2" d="M75.531,84.563c-0.323,0.367-0.647,0.74-0.965,1.111l9.219,8.054
			c0.322-0.371,0.645-0.738,0.972-1.104L75.531,84.563"/>
		<path clip-path="url(#SVGID_2_)" fill="#D4D2D2" d="M87.895,72.601c-0.378,0.312-0.755,0.626-1.129,0.944l7.885,9.504
			c0.377-0.315,0.754-0.626,1.136-0.936L87.895,72.601"/>
		<path clip-path="url(#SVGID_2_)" fill="#D4D2D2" d="M102.007,62.74c-0.423,0.249-0.845,0.499-1.265,0.753l6.325,10.75
			c0.422-0.251,0.845-0.498,1.271-0.743L102.007,62.74"/>
		<path clip-path="url(#SVGID_2_)" fill="#D4D2D2" d="M117.528,55.237c-0.457,0.177-0.914,0.358-1.368,0.542l4.563,11.766
			c0.456-0.18,0.915-0.356,1.374-0.529L117.528,55.237"/>
		<path clip-path="url(#SVGID_2_)" fill="#D4D2D2" d="M134.073,50.311c-0.479,0.101-0.961,0.207-1.438,0.314l2.637,12.51
			c0.479-0.104,0.959-0.204,1.44-0.3L134.073,50.311"/>
		<path clip-path="url(#SVGID_2_)" fill="#D4D2D2" d="M151.204,48.118c-0.492,0.023-0.979,0.049-1.47,0.078l0.605,12.933
			c0.49-0.025,0.979-0.047,1.471-0.065L151.204,48.118"/>
		<path clip-path="url(#SVGID_2_)" fill="#D4D2D2" d="M167.007,48.556l-1.466,12.993c0.486,0.052,0.979,0.109,1.463,0.169
			l1.467-13.003C167.983,48.659,167.492,48.605,167.007,48.556"/>
		<path clip-path="url(#SVGID_2_)" fill="#D4D2D2" d="M156.128,43.588c-55.202,0.005-103.365,41.014-110.78,97.195
			c-0.118,0.892-0.224,1.778-0.32,2.668l0.103,0.014l-0.065,0.496l-0.065,0.496l-0.075-0.01c-0.974,9.838-0.63,19.526,0.894,28.885
			h4.477c-0.438-2.58-0.783-5.189-1.031-7.818c-0.046-0.487-0.088-0.979-0.128-1.467c-0.415-5.161-0.457-10.408-0.104-15.705
			c0.033-0.491,0.068-0.976,0.108-1.468c0.147-1.832,0.342-3.671,0.585-5.514c0.449-3.401,1.053-6.743,1.805-10.022
			c0.11-0.48,0.223-0.955,0.339-1.432c1.258-5.16,2.881-10.157,4.839-14.966c0.185-0.455,0.374-0.909,0.564-1.36
			c2.061-4.869,4.468-9.545,7.184-13.993c0.255-0.418,0.515-0.837,0.775-1.251c2.81-4.463,5.931-8.689,9.335-12.662
			c0.318-0.371,0.642-0.744,0.965-1.111c3.479-3.949,7.232-7.628,11.234-11.019c0.374-0.317,0.751-0.632,1.129-0.944
			c4.053-3.34,8.35-6.388,12.848-9.108c0.42-0.254,0.841-0.504,1.265-0.753c4.53-2.656,9.257-4.984,14.153-6.962
			c0.455-0.183,0.911-0.364,1.368-0.542c4.888-1.896,9.936-3.443,15.106-4.612c0.478-0.108,0.959-0.213,1.438-0.314
			c5.115-1.083,10.345-1.795,15.661-2.114c0.49-0.029,0.978-0.055,1.47-0.078c1.634-0.075,3.279-0.113,4.927-0.113
			c3.599,0,7.225,0.181,10.876,0.551c0.485,0.049,0.977,0.103,1.464,0.159c0.597,0.069,1.193,0.143,1.792,0.222
			c2.957,0.39,5.872,0.898,8.737,1.519v-4.514c-2.579-0.535-5.198-0.983-7.848-1.341l-0.066,0.502l-0.496-0.065l-0.496-0.065
			l0.066-0.501C165.443,43.877,160.765,43.588,156.128,43.588"/>
		<path clip-path="url(#SVGID_2_)" fill="#D4D2D2" d="M155.313,61c-1.172,0-2.341,0.021-3.503,0.064
			c-0.492,0.018-0.98,0.04-1.471,0.065c-4.636,0.242-9.19,0.818-13.628,1.707c-0.481,0.096-0.961,0.196-1.44,0.3
			c-4.518,0.978-8.92,2.28-13.174,3.88c-0.459,0.173-0.918,0.349-1.374,0.529c-4.29,1.69-8.426,3.684-12.385,5.957
			c-0.426,0.245-0.849,0.492-1.271,0.743c-3.954,2.352-7.725,4.986-11.281,7.87c-0.382,0.31-0.759,0.621-1.136,0.936
			c-3.523,2.949-6.831,6.15-9.893,9.574c-0.328,0.366-0.65,0.733-0.972,1.104c-3.005,3.467-5.764,7.155-8.247,11.034
			c-0.264,0.413-0.526,0.829-0.784,1.246c-2.409,3.894-4.542,7.975-6.375,12.215c-0.195,0.452-0.385,0.901-0.574,1.356
			c-1.745,4.219-3.194,8.593-4.32,13.091c-0.12,0.477-0.234,0.951-0.346,1.43c-1.036,4.432-1.76,8.988-2.146,13.633
			c-0.041,0.49-0.077,0.976-0.11,1.468c-0.144,2.13-0.217,4.28-0.217,6.446c0,2.481,0.096,4.938,0.284,7.373
			c0.038,0.49,0.08,0.978,0.125,1.466c0.278,2.99,0.697,5.943,1.248,8.847h4.5c-1.142-5.722-1.74-11.634-1.74-17.686
			c0-49.754,40.477-90.23,90.23-90.23c8.193,0,16.136,1.098,23.687,3.154V64c-3.909-1.011-7.91-1.777-11.996-2.282
			c-0.484-0.06-0.977-0.117-1.463-0.169C162.18,61.186,158.77,61,155.313,61"/>
		<path clip-path="url(#SVGID_2_)" fill="#D4D2D2" d="M155.89,107.21c-25.83,0-47.861,19.342-51.246,44.99
			c-0.965,7.309-0.347,14.468,1.587,21.132h2.086c-1.989-6.563-2.645-13.64-1.69-20.87c3.254-24.658,24.434-43.252,49.264-43.252
			c2.185,0,4.397,0.146,6.578,0.434c5.943,0.785,11.507,2.594,16.532,5.227v-2.246c-4.982-2.482-10.451-4.195-16.271-4.964
			C160.462,107.361,158.161,107.21,155.89,107.21"/>
		<path clip-path="url(#SVGID_2_)" fill="#D4D2D2" d="M155.896,111.104c-23.886,0-44.26,17.886-47.392,41.604
			c-0.945,7.156-0.249,14.157,1.795,20.624h0.525c-2.06-6.44-2.767-13.421-1.824-20.558c3.099-23.471,23.26-41.17,46.896-41.17
			c2.077,0,4.184,0.139,6.258,0.413c6.011,0.793,11.702,2.686,16.847,5.547v-0.572c-5.135-2.816-10.801-4.683-16.781-5.472
			C160.123,111.245,157.995,111.104,155.896,111.104"/>
		<line clip-path="url(#SVGID_2_)" fill="#D4D2D2" x1="45.064" y1="143.961" x2="45.064" y2="143.961"/>
		<polyline clip-path="url(#SVGID_2_)" fill="#D4D2D2" points="0.518,137.574 0.387,138.566 44.924,144.447 44.999,144.457 
			45.064,143.961 45.13,143.465 45.027,143.451 0.518,137.574 		"/>
		<polyline clip-path="url(#SVGID_2_)" fill="#D4D2D2" points="176.48,0.424 176.48,0.424 176.48,0.424 176.48,0.424 		"/>
		<polyline clip-path="url(#SVGID_2_)" fill="#D4D2D2" points="175.984,0.358 170.16,44.471 170.094,44.972 170.59,45.037 
			171.086,45.103 171.152,44.6 176.977,0.489 176.48,0.424 175.984,0.358 		"/>
	</g>
</g>
</svg>
