<?xml version="1.0" encoding="utf-8"?>
<!-- Generator: Adobe Illustrator 16.0.0, SVG Export Plug-In . SVG Version: 6.00 Build 0)  -->
<!DOCTYPE svg PUBLIC "-//W3C//DTD SVG 1.1//EN" "http://www.w3.org/Graphics/SVG/1.1/DTD/svg11.dtd">
<svg version="1.1" id="Layer_1" xmlns="http://www.w3.org/2000/svg" xmlns:xlink="http://www.w3.org/1999/xlink" x="0px" y="0px"
	 width="179px" height="173.332px" viewBox="0 0 179 173.332" enable-background="new 0 0 179 173.332" xml:space="preserve">
<g>
	<g>
		<defs>
			<polyline id="SVGID_1_" points="179,173.5 -51,173.5 -51,-12.5 179,-12.5 179,173.5 			"/>
		</defs>
		<clipPath id="SVGID_2_">
			<use xlink:href="#SVGID_1_"  overflow="visible"/>
		</clipPath>
		<path clip-path="url(#SVGID_2_)" fill="#D4D2D2" d="M103.149,150.809l-4.86,2.278c10.104,12.045,24.851,18.508,39.837,18.508
			c7.787,0,15.641-1.746,22.937-5.36l-3.667-3.978c-6.176,2.812-12.751,4.173-19.276,4.173h-0.002l0,0l0,0c-0.001,0-0.001,0-0.003,0
			C125.062,166.43,112.209,160.982,103.149,150.809 M179,142.239c-2.48,4.521-5.734,8.677-9.72,12.249l2.281,4.863
			c2.783-2.348,5.267-4.946,7.439-7.736V142.239 M102.075,82.24c-16.168,15.518-20.603,40.018-10.662,60.284l3.983-3.671
			c-2.753-6.119-4.087-12.625-4.089-19.081c-0.003-12.651,5.109-25.116,14.682-34.122l-1.778,1.146L102.075,82.24 M137.97,67.782
			c-6.398,0-12.842,1.179-18.983,3.604l3.4,3.689l-2.117,1.365c5.715-2.352,11.73-3.493,17.707-3.493h0.002l0,0l0,0
			c0.001,0,0.001,0,0.002,0c12.999,0.001,25.801,5.402,34.854,15.495l4.864-2.28C167.599,74.197,152.904,67.781,137.97,67.782"/>
		<path clip-path="url(#SVGID_2_)" fill="#D4D2D2" d="M161.48,160.149c-1.337,0.776-2.701,1.478-4.083,2.107l0,0l3.667,3.978
			l6.697,7.265h4.292L161.48,160.149 M169.28,154.488c-1.115,1-2.288,1.954-3.517,2.857l8.962,16.155h3.47l-6.635-14.149
			L169.28,154.488"/>
		<path clip-path="url(#SVGID_2_)" fill="#D4D2D2" d="M179,95.897l-0.475,0.376l-0.046-0.072c0.178,0.306,0.351,0.612,0.521,0.92
			V95.897 M179,85.552l-1.301,0.61l-4.864,2.28c1.104,1.231,2.153,2.532,3.139,3.901l-0.252-0.388L179,90.137V85.552"/>
		<path clip-path="url(#SVGID_2_)" fill="#D4D2D2" d="M95.396,138.853L95.396,138.853l-3.983,3.671l-30.447,28.06l37.323-17.497
			l4.86-2.278c-1-1.122-1.951-2.3-2.854-3.537l0.003,0.004l-27.565,15.289l24.761-19.605
			C96.721,141.614,96.022,140.244,95.396,138.853"/>
		<path clip-path="url(#SVGID_2_)" fill="#D4D2D2" d="M74.209,22.8l27.866,59.44l2.136,4.556l1.778-1.146
			c0.984-0.926,2.016-1.815,3.094-2.665L82.228,34.567l34.46,43.527c1.178-0.606,2.373-1.157,3.58-1.654l0.001,0l2.117-1.365
			l-3.4-3.689L74.209,22.8"/>
		<path clip-path="url(#SVGID_2_)" fill="#E6E4E4" d="M137.979,72.947h-0.002c-5.977,0-11.992,1.141-17.708,3.493
			c-1.208,0.497-2.402,1.048-3.58,1.654l0.938,1.185l-7.738,5.158l-0.806-1.453c-1.078,0.85-2.109,1.739-3.094,2.665
			c-9.572,9.006-14.685,21.471-14.682,34.122c0.002,6.457,1.336,12.962,4.089,19.081c0.626,1.392,1.325,2.762,2.099,4.108
			l0.002-0.001l2.799,4.313c0.903,1.237,1.854,2.415,2.854,3.537c9.06,10.173,21.913,15.621,34.967,15.621c0.001,0,0.001,0,0.003,0
			l0,0h0.002c6.525,0,13.1-1.361,19.276-4.173c1.382-0.629,2.746-1.332,4.083-2.107l-0.106-0.135l4.317-2.801l0.073,0.131
			c1.229-0.903,2.401-1.857,3.517-2.857c3.985-3.572,7.24-7.728,9.72-12.249v-15.411c-1.891,10.829-8.034,20.898-17.881,27.463
			c-7.075,4.717-15.082,6.973-23.008,6.973c-13.449,0-26.661-6.5-34.666-18.504c-12.721-19.079-7.548-44.953,11.532-57.674
			c7.075-4.717,15.083-6.974,23.008-6.974c13.449,0,26.661,6.5,34.665,18.505c3.291,4.935,5.384,10.326,6.35,15.825v-15.32
			c-0.17-0.309-0.344-0.614-0.521-0.92l-2.504-3.859c-0.986-1.369-2.035-2.67-3.139-3.901
			c-9.053-10.093-21.855-15.494-34.854-15.495C137.979,72.947,137.98,72.947,137.979,72.947L137.979,72.947"/>
		<polyline clip-path="url(#SVGID_2_)" fill="#E6E4E4" points="82.228,34.567 109.083,82.984 109.889,84.438 117.627,79.279 
			116.688,78.094 82.228,34.567 		"/>
		<polyline clip-path="url(#SVGID_2_)" fill="#E6E4E4" points="97.497,142.959 97.495,142.96 72.734,162.565 100.299,147.276 
			100.296,147.272 97.497,142.959 		"/>
		<polyline clip-path="url(#SVGID_2_)" fill="#E6E4E4" points="179,90.137 175.723,91.955 175.975,92.343 178.479,96.202 
			178.525,96.273 179,95.897 179,90.137 		"/>
		<polyline clip-path="url(#SVGID_2_)" fill="#E6E4E4" points="165.691,157.214 161.374,160.015 161.48,160.149 172.052,173.5 
			174.726,173.5 165.764,157.345 165.691,157.214 		"/>
	</g>
</g>
</svg>
