<?xml version="1.0" encoding="utf-8"?>
<!-- Generator: Adobe Illustrator 16.0.0, SVG Export Plug-In . SVG Version: 6.00 Build 0)  -->
<!DOCTYPE svg PUBLIC "-//W3C//DTD SVG 1.1//EN" "http://www.w3.org/Graphics/SVG/1.1/DTD/svg11.dtd">
<svg version="1.1" id="Layer_1" xmlns="http://www.w3.org/2000/svg" xmlns:xlink="http://www.w3.org/1999/xlink" x="0px" y="0px"
	 width="1035.104px" height="1044.104px" viewBox="0 0 1035.104 1044.104" enable-background="new 0 0 1035.104 1044.104"
	 xml:space="preserve">
<g>
	<polyline fill="#EBEBEB" points="647.159,318.173 520.36,524.533 566.634,513.481 567.297,514.057 647.159,318.173 	"/>
	<polyline fill="#D7D6D6" points="647.159,318.173 508.536,477.886 509.025,478.085 520.129,524.588 520.36,524.533 
		647.159,318.173 	"/>
	<polyline fill="#EBEBEB" points="520.405,525.744 520.405,525.744 519.827,525.882 531.035,572.802 727.053,652.719 
		520.405,525.744 	"/>
	<polyline fill="#D7D6D6" points="566.634,513.481 520.36,524.533 520.129,524.588 520.405,525.744 727.053,652.719 
		567.297,514.057 566.634,513.481 	"/>
	<polyline fill="#EBEBEB" points="519.482,525.965 472.747,537.129 472.413,536.84 472.084,536.918 391.891,733.616 
		519.482,525.965 	"/>
	<polyline fill="#D7D6D6" points="519.827,525.882 519.482,525.965 391.891,733.616 531.129,573.195 531.035,572.802 
		519.827,525.882 	"/>
	<polyline fill="#EBEBEB" points="312.327,397.89 312.327,397.89 520.405,525.744 519.832,525.392 520.405,525.744 520.129,524.588 
		509.025,478.085 508.536,477.886 312.327,397.89 	"/>
	<polyline fill="#D7D6D6" points="312.327,397.89 312.327,397.89 472.413,536.84 472.747,537.129 519.482,525.965 519.827,525.882 
		520.405,525.744 312.327,397.89 	"/>
</g>
<path fill="#CDCCCC" d="M519.745,528.093c0,0-1.038-3.202-2.715-8.834c-0.84-2.815-1.862-6.233-2.969-10.167
	c-0.561-1.966-1.158-4.058-1.788-6.262c-0.32-1.102-0.528-2.255-0.712-3.44c-0.196-1.185-0.436-2.388-0.677-3.617
	c-3.845-19.681-8.971-45.92-14.098-72.16c-5.127-26.24-10.253-52.48-14.098-72.16c-0.243-1.229-0.466-2.437-0.728-3.607
	c-0.286-1.166-0.506-2.316-0.609-3.461c-0.247-2.279-0.481-4.441-0.701-6.474c-0.454-4.062-0.795-7.612-1.083-10.536
	c-0.301-2.921-0.477-5.228-0.623-6.795c-0.138-1.569-0.211-2.406-0.211-2.406s0.247,0.803,0.709,2.309
	c0.456,1.508,1.161,3.711,1.981,6.53c0.833,2.816,1.854,6.235,2.962,10.169c0.561,1.965,1.158,4.057,1.788,6.262
	c0.334,1.099,0.564,2.247,0.738,3.436c0.198,1.184,0.446,2.385,0.684,3.615c3.845,19.681,8.971,45.92,14.098,72.16
	c5.126,26.24,10.253,52.48,14.098,72.16c0.239,1.23,0.47,2.436,0.734,3.605c0.276,1.169,0.518,2.315,0.635,3.456
	c0.247,2.279,0.48,4.442,0.7,6.474c0.456,4.062,0.795,7.613,1.076,10.538C519.5,524.735,519.745,528.093,519.745,528.093z"/>
<path fill="#CDCCCC" d="M559.744,734.093c0,0-1.037-3.202-2.715-8.834c-0.84-2.815-1.862-6.233-2.969-10.167
	c-0.562-1.966-1.158-4.058-1.788-6.262c-0.32-1.102-0.528-2.255-0.712-3.44c-0.197-1.185-0.436-2.388-0.678-3.617
	c-3.845-19.681-8.971-45.92-14.098-72.16s-10.254-52.48-14.098-72.16c-0.243-1.229-0.466-2.437-0.728-3.607
	c-0.286-1.166-0.506-2.316-0.609-3.461c-0.247-2.279-0.481-4.441-0.701-6.474c-0.454-4.062-0.795-7.612-1.083-10.536
	c-0.301-2.921-0.477-5.228-0.623-6.795c-0.138-1.569-0.211-2.406-0.211-2.406s0.247,0.803,0.709,2.309
	c0.456,1.508,1.161,3.711,1.981,6.53c0.833,2.816,1.854,6.235,2.962,10.169c0.561,1.965,1.158,4.057,1.787,6.262
	c0.335,1.099,0.564,2.247,0.738,3.436c0.199,1.184,0.446,2.385,0.684,3.615c3.846,19.681,8.972,45.92,14.099,72.16
	c5.126,26.24,10.253,52.48,14.098,72.16c0.239,1.23,0.47,2.436,0.733,3.605c0.277,1.169,0.518,2.315,0.636,3.456
	c0.247,2.279,0.48,4.442,0.7,6.474c0.455,4.062,0.795,7.613,1.076,10.538C559.5,730.735,559.744,734.093,559.744,734.093z"/>
<path fill="#CDCCCC" d="M517.422,526.376c0,0,3.203-1.037,8.833-2.716c2.816-0.84,6.234-1.862,10.168-2.969
	c1.965-0.561,4.057-1.158,6.262-1.787c1.102-0.321,2.254-0.529,3.44-0.713c1.184-0.196,2.388-0.436,3.617-0.677
	c19.68-3.846,45.92-8.972,72.159-14.098c26.24-5.127,52.48-10.254,72.16-14.099c1.23-0.242,2.437-0.466,3.607-0.728
	c1.166-0.286,2.317-0.506,3.461-0.608c2.279-0.247,4.441-0.48,6.475-0.701c4.061-0.453,7.612-0.795,10.535-1.083
	c2.921-0.301,5.228-0.478,6.795-0.622c1.57-0.139,2.406-0.212,2.406-0.212s-0.803,0.247-2.309,0.71
	c-1.507,0.455-3.711,1.16-6.529,1.98c-2.816,0.833-6.236,1.854-10.17,2.962c-1.965,0.561-4.057,1.158-6.261,1.787
	c-1.099,0.335-2.247,0.564-3.436,0.738c-1.184,0.198-2.386,0.446-3.616,0.684c-19.68,3.846-45.92,8.972-72.16,14.098
	c-26.24,5.127-52.479,10.254-72.16,14.099c-1.229,0.239-2.436,0.47-3.605,0.733c-1.168,0.276-2.314,0.518-3.455,0.635
	c-2.28,0.247-4.442,0.48-6.475,0.701c-4.061,0.455-7.613,0.795-10.537,1.076C520.78,526.132,517.422,526.376,517.422,526.376z"/>
<path fill="#CDCCCC" d="M311.422,566.376c0,0,3.203-1.037,8.834-2.716c2.815-0.84,6.233-1.862,10.167-2.969
	c1.965-0.561,4.057-1.158,6.262-1.787c1.101-0.321,2.254-0.529,3.44-0.713c1.184-0.196,2.387-0.436,3.617-0.677
	c19.68-3.846,45.92-8.972,72.16-14.098c26.24-5.127,52.48-10.254,72.16-14.099c1.229-0.242,2.436-0.466,3.607-0.728
	c1.166-0.286,2.317-0.506,3.46-0.608c2.28-0.247,4.442-0.48,6.474-0.701c4.062-0.453,7.613-0.795,10.536-1.083
	c2.92-0.301,5.227-0.478,6.795-0.622c1.569-0.139,2.406-0.212,2.406-0.212s-0.803,0.247-2.309,0.71
	c-1.507,0.455-3.711,1.16-6.53,1.98c-2.816,0.833-6.235,1.854-10.169,2.962c-1.965,0.561-4.057,1.158-6.261,1.787
	c-1.099,0.335-2.248,0.564-3.436,0.738c-1.183,0.198-2.385,0.446-3.616,0.684c-19.68,3.846-45.92,8.972-72.16,14.098
	c-26.24,5.127-52.48,10.254-72.16,14.099c-1.23,0.239-2.436,0.47-3.606,0.733c-1.168,0.276-2.315,0.518-3.456,0.635
	c-2.28,0.247-4.442,0.48-6.474,0.701c-4.061,0.455-7.613,0.795-10.538,1.076C314.78,566.132,311.422,566.376,311.422,566.376z"/>
<circle fill="none" stroke="#FFFFFF" stroke-width="2" stroke-miterlimit="10" cx="521.095" cy="528.062" r="492.725"/>
</svg>
