<?xml version="1.0" encoding="utf-8"?>
<!-- Generator: Adobe Illustrator 16.0.0, SVG Export Plug-In . SVG Version: 6.00 Build 0)  -->
<!DOCTYPE svg PUBLIC "-//W3C//DTD SVG 1.1//EN" "http://www.w3.org/Graphics/SVG/1.1/DTD/svg11.dtd">
<svg version="1.1" id="Layer_1" xmlns="http://www.w3.org/2000/svg" xmlns:xlink="http://www.w3.org/1999/xlink" x="0px" y="0px"
	 width="28px" height="40px" viewBox="0 0 28 40" enable-background="new 0 0 28 40" xml:space="preserve">
<g>
	<path fill="#05A0D1" d="M28,39.129C28,39.541,27.286,40,26.869,40H1.131C0.715,40,0,39.541,0,39.129V13.746
		C0,13.334,0.715,13,1.131,13h25.738C27.286,13,28,13.334,28,13.746V39.129z"/>
	<g>
		<path fill="#05A0D1" d="M25,17h-4v-6.058c0-3.916-3.052-7.224-7-7.224c-4.015,0-7,3.189-7,7.109V17H3v-6.173
			C3,4.994,8.07,0.25,14,0.25c5.928,0,11,4.796,11,10.692V17z"/>
	</g>
	<g>
		<circle fill="#0D242F" cx="14.458" cy="27.682" r="2.891"/>
		<rect x="13" y="28" fill="#0D242F" width="3" height="6"/>
		<path fill="#0D242F" d="M15.903,33.98c0,0.767-0.621,1.387-1.388,1.387s-1.388-0.62-1.388-1.387"/>
	</g>
</g>
</svg>
