<?xml version="1.0" encoding="utf-8"?>
<!-- Generator: Adobe Illustrator 16.0.0, SVG Export Plug-In . SVG Version: 6.00 Build 0)  -->
<!DOCTYPE svg PUBLIC "-//W3C//DTD SVG 1.1//EN" "http://www.w3.org/Graphics/SVG/1.1/DTD/svg11.dtd">
<svg version="1.1" id="Layer_1" xmlns="http://www.w3.org/2000/svg" xmlns:xlink="http://www.w3.org/1999/xlink" x="0px" y="0px"
	 width="177.182px" height="66.845px" viewBox="0 0 177.182 66.845" enable-background="new 0 0 177.182 66.845"
	 xml:space="preserve">
<g>
	<path fill="#007DA4" d="M17.569,37.592c5.522,0,9.079-4.157,9.079-9.518s-3.557-9.519-9.079-9.519
		c-5.527,0-9.083,4.157-9.083,9.519S12.042,37.592,17.569,37.592L17.569,37.592z M4.22,15.272h4.266v3.722h0.109
		c2.357-2.735,5.474-4.379,9.192-4.379c8.044,0,13.458,5.688,13.458,13.458c0,7.658-5.635,13.458-12.801,13.458
		c-4.596,0-8.262-2.301-9.849-5.201H8.486v20.19H4.22V15.272L4.22,15.272z"/>
	<path fill="#007DA4" d="M34.125,21.343c0-2.348-0.222-4.375-0.222-6.07h4.048c0,1.37,0.108,2.787,0.108,4.213h0.109
		c1.148-2.518,4.322-4.87,8.536-4.87c0.548,0,1.148,0.057,1.748,0.274l-0.274,4.322c-0.708-0.217-1.531-0.331-2.296-0.331
		c-5.196,0-7.492,3.67-7.492,9.523v12.471h-4.266V21.343L34.125,21.343z"/>
	<path fill="#007DA4" d="M94.59,18.881h-7.549v12.806c0,3.279,0.052,5.905,3.826,5.905c1.262,0,2.626-0.273,3.774-0.874l0.166,3.884
		c-1.474,0.656-3.392,0.931-4.979,0.931c-6.07,0-7.057-3.283-7.057-8.593V18.881h-5.579v-3.609h5.579V7.998h4.27v7.275h7.549V18.881
		L94.59,18.881z"/>
	<path fill="#007DA4" d="M116.174,25.778c-0.165-4.322-3.008-7.223-7.713-7.223c-4.706,0-7.823,2.9-8.371,7.223H116.174
		L116.174,25.778z M119.84,36.223c-3.009,3.888-6.618,5.31-11.379,5.31c-8.041,0-12.967-6.019-12.967-13.458
		c0-7.931,5.583-13.458,13.131-13.458c7.223,0,12.141,4.927,12.141,13.401v1.37H100.09c0.33,4.432,3.722,8.205,8.371,8.205
		c3.666,0,6.126-1.312,8.153-3.883L119.84,36.223L119.84,36.223z"/>
	<path fill="#007DA4" d="M146.656,34.805c0,2.349,0.222,4.375,0.222,6.07h-4.048c0-1.369-0.109-2.791-0.109-4.213h-0.113
		c-1.148,2.518-4.318,4.87-8.531,4.87c-6.727,0-9.736-4.267-9.736-10.449V15.272h4.266v15.371c0,4.271,1.861,6.948,5.853,6.948
		c5.526,0,7.931-3.996,7.931-9.849V15.272h4.266V34.805L146.656,34.805z"/>
	<path fill="#007DA4" d="M153.545,34.144c1.695,2.079,3.557,3.448,6.565,3.448c2.68,0,5.632-1.147,5.632-3.939
		c0-2.735-2.731-3.448-5.47-4.048c-4.87-1.091-9.023-2.135-9.023-7.44c0-4.979,4.813-7.549,9.571-7.549
		c3.608,0,6.947,1.37,8.696,4.653l-3.553,2.348c-1.096-1.805-2.9-3.062-5.418-3.062c-2.353,0-5.031,1.148-5.031,3.557
		c0,2.131,3.062,3.061,6.453,3.718c4.544,0.874,8.37,2.518,8.37,7.657c0,5.801-5.144,8.045-10.228,8.045
		c-4.321,0-7.444-1.148-9.957-4.762L153.545,34.144L153.545,34.144z"/>
	<path fill="#007DA4" d="M71.446,31.997c-2.166,4.557-7.616,6.494-12.173,4.328c-4.556-2.167-6.493-7.616-4.327-12.174
		c2.167-4.556,7.616-6.494,12.172-4.326C71.676,21.991,73.613,27.44,71.446,31.997L71.446,31.997z M72.777,31.894
		c0.934-2.333,0.997-4.89,0.148-7.278c-0.725-2.039-2.044-3.752-3.78-4.971l0.621-5.391l-3.781,3.877
		c-0.903-0.255-1.834-0.384-2.784-0.384c-3.744,0-7.216,2.064-9.025,5.308l-2.035-0.234l1.474,1.437
		c-1.915,4.804,0.043,10.311,4.561,12.826l-0.236,2.045l1.429-1.466c1.22,0.489,2.502,0.739,3.82,0.739
		c3.745,0,7.217-2.063,9.025-5.307l2.035,0.234L72.777,31.894L72.777,31.894z"/>
	<path d="M72.215,33.095c-1.809,3.243-5.28,5.307-9.025,5.307c-1.318,0-2.6-0.25-3.82-0.739l-1.429,1.466l0.236-2.045
		c-4.518-2.516-6.476-8.022-4.561-12.826l-1.474-1.437l2.035,0.234c1.81-3.244,5.281-5.308,9.025-5.308
		c0.95,0,1.881,0.129,2.784,0.384l3.781-3.877l-0.621,5.391c1.735,1.219,3.055,2.933,3.78,4.971
		c0.849,2.388,0.786,4.945-0.148,7.278l1.473,1.436L72.215,33.095L72.215,33.095z M75.811,32.752
		c1.959-5.265,0.404-11.11-3.668-14.731l1.333-11.571l-8.13,8.338c-5.379-0.874-10.896,1.61-13.742,6.454l-3.663-0.421l2.64,2.574
		c-2.269,6.098,0.176,12.974,5.785,16.271l-0.421,3.662l2.573-2.64c6.098,2.27,12.975-0.176,16.271-5.785l3.663,0.422L75.811,32.752
		L75.811,32.752z"/>
</g>
</svg>
