<?xml version="1.0" encoding="utf-8"?>
<!-- Generator: Adobe Illustrator 16.0.0, SVG Export Plug-In . SVG Version: 6.00 Build 0)  -->
<!DOCTYPE svg PUBLIC "-//W3C//DTD SVG 1.1//EN" "http://www.w3.org/Graphics/SVG/1.1/DTD/svg11.dtd">
<svg version="1.1" id="Layer_1" xmlns="http://www.w3.org/2000/svg" xmlns:xlink="http://www.w3.org/1999/xlink" x="0px" y="0px"
	 width="595.28px" height="658.467px" viewBox="0 0 595.28 658.467" enable-background="new 0 0 595.28 658.467"
	 xml:space="preserve">
<g>
	<g>
		<path fill="#F3F3F3" d="M210.343,505.922c-49.648-22.601-87.524-63.183-106.649-114.272
			c-19.125-51.088-17.211-106.567,5.392-156.216c22.602-49.648,63.184-87.523,114.272-106.648
			c51.088-19.126,106.567-17.212,156.217,5.391c49.648,22.601,87.523,63.185,106.648,114.272
			c19.125,51.089,17.211,106.566-5.391,156.215c-22.602,49.65-63.185,87.524-114.273,106.649
			C315.471,530.44,259.993,528.525,210.343,505.922z M371.801,151.248c-93.077-42.37-203.271-1.119-245.643,91.958
			c-42.371,93.077-1.119,203.273,91.958,245.645c93.078,42.371,203.272,1.117,245.644-91.959
			C506.131,303.815,464.879,193.619,371.801,151.248z"/>
	</g>
	<g>
		<g>
			<polygon fill="#E6E6E5" points="416.842,52.459 294.352,321.531 349.904,300.735 			"/>
			<polygon fill="#014969" points="417.156,52.382 294.667,321.455 273.871,265.902 			"/>
		</g>
		<g>
			<polygon fill="#E6E6E5" points="562.25,442.817 293.178,320.328 313.975,375.881 			"/>
			<polygon fill="#CDB32C" points="562.646,442.178 293.573,319.688 349.125,298.891 			"/>
		</g>
		<g>
			<polygon fill="#E6E6E5" points="172.186,589.415 294.675,320.342 239.123,341.139 			"/>
			<polygon fill="#4795D1" points="171.925,589.853 294.415,320.779 315.211,376.332 			"/>
		</g>
		<g>
			<polygon fill="#E6E6E5" points="26.482,198.485 295.555,320.976 274.759,265.423 			"/>
			<polygon fill="#057C45" points="26.549,198.566 295.623,321.057 240.069,341.853 			"/>
		</g>
	</g>
	<g>
		<line fill="#E6E6E5" x1="193.687" y1="43.154" x2="271.87" y2="252.001"/>
		<polygon fill="#E6E6E5" points="271.551,251.562 267.385,249.254 192.263,48.496 193.005,43.41 193.17,43.349 197.946,45.975 
			273.139,246.833 271.551,251.562 		"/>
	</g>
	<g>
		<line fill="#E6E6E5" x1="320.482" y1="387.562" x2="398.665" y2="596.407"/>
		<polygon fill="#E6E6E5" points="398.811,596.249 394.801,593.882 319.685,392.896 320.399,387.593 320.323,387.62 
			324.891,390.779 400.084,591.64 398.811,596.249 		"/>
	</g>
	<g>
		<line fill="#E6E6E5" x1="573.037" y1="215.068" x2="364.191" y2="293.251"/>
		<polygon fill="#E6E6E5" points="364.279,293.487 366.658,289.504 567.324,214.525 572.287,215.316 572.287,215.316 
			569.728,219.512 368.869,294.703 364.279,293.487 		"/>
	</g>
	<g>
		<line fill="#E6E6E5" x1="229.332" y1="343.736" x2="20.486" y2="421.919"/>
		<polygon fill="#E6E6E5" points="20.68,421.761 22.999,417.624 223.637,342.567 228.702,343.629 228.702,343.629 226.244,348.096 
			25.384,423.288 20.68,421.761 		"/>
	</g>
</g>
</svg>
